<svg width="270.0" height="20" viewBox="0 0 270.0 20" style="width: 540.0px; height: 40px" xmlns="http://www.w3.org/2000/svg">
    <defs>
        <mask id="PF18684.6_0" width="86.0" height="10" fill="#fff">
            <rect x="0" y="0" width="0.0" height="10" opacity="0.6" />
            <rect x="0.0" y="0" width="86.0" height="10" opacity="1" />
            <rect x="86.0" y="0" width="0.0" height="10" opacity="0.6" />
        </mask>
        <mask id="PF22693.1_0" width="134.0" height="10" fill="#fff">
            <rect x="0" y="0" width="0.5" height="10" opacity="0.6" />
            <rect x="0.5" y="0" width="132.5" height="10" opacity="1" />
            <rect x="133.0" y="0" width="1.0" height="10" opacity="0.6" />
        </mask>
    </defs>
    <g transform="translate(0 10)">
        <rect x="0" y="-2.5" width="268.0" height="5" fill="#d8d8d8" rx="2.5" ry="2.5" />
    </g>
    <g transform="translate(179.5, 5)" dataentity="PF18684.6">
        <path d="m5,0h76.0h5v10h-5h-76.0h-5v-10h5z" fill="#43e3be" mask="url(#PF18684.6_0)" />
        <text x="43.0" y="8" text-anchor="middle" font-size="7.5" fill="white" opacity="1" data-maxwidth="61" font-family="Monospace">PlyB_C</text>
    </g>
    <g transform="translate(42.5, 5)" dataentity="PF22693.1">
        <path d="m5,0h124.0h5v10h-5h-124.0h-5v-10h5z" fill="#e3712b" mask="url(#PF22693.1_0)" />
        <text x="67.0" y="8" text-anchor="middle" font-size="7.5" fill="white" opacity="1" data-maxwidth="61" font-family="Monospace">MACPF_1</text>
    </g>
</svg>