<svg width="262.5" height="20" viewBox="0 0 262.5 20" style="width: 525.0px; height: 40px" xmlns="http://www.w3.org/2000/svg">
    <defs>
        <mask id="PF22693.1_0" width="129.0" height="10" fill="#fff">
            <rect x="0" y="0" width="13.5" height="10" opacity="0.6" />
            <rect x="13.5" y="0" width="114.5" height="10" opacity="1" />
            <rect x="128.0" y="0" width="1.0" height="10" opacity="0.6" />
        </mask>
        <mask id="PF18885.6_1" width="73.5" height="10" fill="#fff">
            <rect x="0" y="0" width="6.0" height="10" opacity="0.6" />
            <rect x="6.0" y="0" width="58.0" height="10" opacity="1" />
            <rect x="64.0" y="0" width="9.5" height="10" opacity="0.6" />
        </mask>
        <mask id="PF01823.24_0" width="86.5" height="10" fill="#fff">
            <rect x="0" y="0" width="2.5" height="10" opacity="0.6" />
            <rect x="2.5" y="0" width="82.0" height="10" opacity="1" />
            <rect x="84.5" y="0" width="2.0" height="10" opacity="0.6" />
        </mask>
    </defs>
    <g transform="translate(0 10)">
        <rect x="0" y="-2.5" width="260.5" height="5" fill="#d8d8d8" rx="2.5" ry="2.5" />
    </g>
    <g transform="translate(57.0, 5)" dataentity="PF22693.1">
        <path d="m5,0h119.0h5v10h-5h-119.0h-5v-10h5z" fill="#e3712b" mask="url(#PF22693.1_0)" />
        <text x="64.5" y="8" text-anchor="middle" font-size="7.5" fill="white" opacity="1" data-maxwidth="61" font-family="Monospace">MACPF_1</text>
    </g>
    <g transform="translate(185.0, 5)" dataentity="PF18885.6">
        <path d="m5,0h63.5h5v10h-5h-63.5h-5v-10h5z" fill="#c453ce" mask="url(#PF18885.6_1)" />
        <text x="36.75" y="8" text-anchor="middle" font-size="7.5" fill="white" opacity="1" data-maxwidth="61" font-family="Monospace">DUF5648</text>
    </g>
    <g transform="translate(88.0, 5)" dataentity="PF01823.24">
        <path d="m5,0h76.5h5v10h-5h-76.5h-5v-10h5z" fill="#83daac" mask="url(#PF01823.24_0)" />
        <text x="43.25" y="8" text-anchor="middle" font-size="7.5" fill="white" opacity="1" data-maxwidth="61" font-family="Monospace">MACPF</text>
    </g>
</svg>