<svg width="356.5" height="20" viewBox="0 0 356.5 20" style="width: 713.0px; height: 40px" xmlns="http://www.w3.org/2000/svg">
    <defs>
        <mask id="PF01823.24_0" width="94.0" height="10" fill="#fff">
            <rect x="0" y="0" width="17.0" height="10" opacity="0.6" />
            <rect x="17.0" y="0" width="25.5" height="10" opacity="1" />
            <rect x="42.5" y="0" width="51.5" height="10" opacity="0.6" />
        </mask>
        <mask id="PF01926.29_0" width="54.5" height="10" fill="#fff">
            <rect x="0" y="0" width="0.5" height="10" opacity="0.6" />
            <rect x="0.5" y="0" width="35.5" height="10" opacity="1" />
            <rect x="36.0" y="0" width="18.5" height="10" opacity="0.6" />
        </mask>
    </defs>
    <g transform="translate(0 10)">
        <rect x="0" y="-2.5" width="354.5" height="5" fill="#d8d8d8" rx="2.5" ry="2.5" />
    </g>
    <g transform="translate(216.0, 5)" dataentity="PF01823.24">
        <path d="m5,0h84.0h5v10h-5h-84.0h-5v-10h5z" fill="#83daac" mask="url(#PF01823.24_0)" />
        <text x="47.0" y="8" text-anchor="middle" font-size="7.5" fill="white" opacity="1" data-maxwidth="61" font-family="Monospace">MACPF</text>
    </g>
    <g transform="translate(27.0, 5)" dataentity="PF01926.29">
        <path d="m5,0h44.5h5v10h-5h-44.5h-5v-10h5z" fill="#357bdb" mask="url(#PF01926.29_0)" />
        <text x="27.25" y="8" text-anchor="middle" font-size="7.5" fill="white" opacity="1" data-maxwidth="61" font-family="Monospace">MMR_HSR1</text>
    </g>
</svg>