<svg width="527.5" height="20" viewBox="0 0 527.5 20" style="width: 1055.0px; height: 40px" xmlns="http://www.w3.org/2000/svg">
    <defs>
        <mask id="PF04548.22_0" width="70.0" height="10" fill="#fff">
            <rect x="0" y="0" width="1.0" height="10" opacity="0.6" />
            <rect x="1.0" y="0" width="56.0" height="10" opacity="1" />
            <rect x="57.0" y="0" width="13.0" height="10" opacity="0.6" />
        </mask>
        <mask id="PF01823.24_0" width="35.5" height="10" fill="#fff">
            <rect x="0" y="0" width="5.5" height="10" opacity="0.6" />
            <rect x="5.5" y="0" width="28.0" height="10" opacity="1" />
            <rect x="33.5" y="0" width="2.0" height="10" opacity="0.6" />
        </mask>
    </defs>
    <g transform="translate(0 10)">
        <rect x="0" y="-2.5" width="525.5" height="5" fill="#d8d8d8" rx="2.5" ry="2.5" />
    </g>
    <g transform="translate(99.5, 5)" dataentity="PF04548.22">
        <path d="m5,0h60.0h5v10h-5h-60.0h-5v-10h5z" fill="#5ec2d3" mask="url(#PF04548.22_0)" />
        <text x="35.0" y="8" text-anchor="middle" font-size="7.5" fill="white" opacity="1" data-maxwidth="61" font-family="Monospace">AIG1</text>
    </g>
    <g transform="translate(431.5, 5)" dataentity="PF01823.24">
        <path d="m5,0h25.5h5v10h-5h-25.5h-5v-10h5z" fill="#83daac" mask="url(#PF01823.24_0)" />
        <text x="17.75" y="8" text-anchor="middle" font-size="7.5" fill="white" opacity="1" data-maxwidth="61" font-family="Monospace">MACPF</text>
    </g>
</svg>