<svg width="375.0" height="20" viewBox="0 0 375.0 20" style="width: 750.0px; height: 40px" xmlns="http://www.w3.org/2000/svg">
    <defs>
        <mask id="PF01823.24_0" width="43.0" height="10" fill="#fff">
            <rect x="0" y="0" width="11.0" height="10" opacity="0.6" />
            <rect x="11.0" y="0" width="29.0" height="10" opacity="1" />
            <rect x="40.0" y="0" width="3.0" height="10" opacity="0.6" />
        </mask>
        <mask id="PF04548.22_0" width="69.0" height="10" fill="#fff">
            <rect x="0" y="0" width="1.0" height="10" opacity="0.6" />
            <rect x="1.0" y="0" width="61.5" height="10" opacity="1" />
            <rect x="62.5" y="0" width="6.5" height="10" opacity="0.6" />
        </mask>
        <mask id="PF01926.29_0" width="58.5" height="10" fill="#fff">
            <rect x="0" y="0" width="0.5" height="10" opacity="0.6" />
            <rect x="0.5" y="0" width="37.0" height="10" opacity="1" />
            <rect x="37.5" y="0" width="21.0" height="10" opacity="0.6" />
        </mask>
    </defs>
    <g transform="translate(0 10)">
        <rect x="0" y="-2.5" width="373.0" height="5" fill="#d8d8d8" rx="2.5" ry="2.5" />
    </g>
    <g transform="translate(265.0, 5)" dataentity="PF01823.24">
        <path d="m5,0h33.0h5v10h-5h-33.0h-5v-10h5z" fill="#83daac" mask="url(#PF01823.24_0)" />
        <text x="21.5" y="8" text-anchor="middle" font-size="7.5" fill="white" opacity="1" data-maxwidth="61" font-family="Monospace">MACPF</text>
    </g>
    <g transform="translate(99.5, 5)" dataentity="PF04548.22">
        <path d="m5,0h59.0h5v10h-5h-59.0h-5v-10h5z" fill="#5ec2d3" mask="url(#PF04548.22_0)" />
        <text x="34.5" y="8" text-anchor="middle" font-size="7.5" fill="white" opacity="1" data-maxwidth="61" font-family="Monospace">AIG1</text>
    </g>
    <g transform="translate(100.0, 5)" dataentity="PF01926.29">
        <path d="m5,0h48.5h5v10h-5h-48.5h-5v-10h5z" fill="#357bdb" mask="url(#PF01926.29_0)" />
        <text x="29.25" y="8" text-anchor="middle" font-size="7.5" fill="white" opacity="1" data-maxwidth="61" font-family="Monospace">MMR_HSR1</text>
    </g>
</svg>