<svg width="254.5" height="20" viewBox="0 0 254.5 20" style="width: 509.0px; height: 40px" xmlns="http://www.w3.org/2000/svg">
    <defs>
        <mask id="PF18684.6_0" width="86.0" height="10" fill="#fff">
            <rect x="0" y="0" width="0.0" height="10" opacity="0.6" />
            <rect x="0.0" y="0" width="86.0" height="10" opacity="1" />
            <rect x="86.0" y="0" width="0.0" height="10" opacity="0.6" />
        </mask>
        <mask id="PF22693.1_0" width="133.5" height="10" fill="#fff">
            <rect x="0" y="0" width="0.0" height="10" opacity="0.6" />
            <rect x="0.0" y="0" width="133.5" height="10" opacity="1" />
            <rect x="133.5" y="0" width="0.0" height="10" opacity="0.6" />
        </mask>
        <mask id="PF01823.24_0" width="104.5" height="10" fill="#fff">
            <rect x="0" y="0" width="1.0" height="10" opacity="0.6" />
            <rect x="1.0" y="0" width="101.5" height="10" opacity="1" />
            <rect x="102.5" y="0" width="2.0" height="10" opacity="0.6" />
        </mask>
    </defs>
    <g transform="translate(0 10)">
        <rect x="0" y="-2.5" width="252.5" height="5" fill="#d8d8d8" rx="2.5" ry="2.5" />
    </g>
    <g transform="translate(164.0, 5)" dataentity="PF18684.6">
        <path d="m5,0h76.0h5v10h-5h-76.0h-5v-10h5z" fill="#43e3be" mask="url(#PF18684.6_0)" />
        <text x="43.0" y="8" text-anchor="middle" font-size="7.5" fill="white" opacity="1" data-maxwidth="61" font-family="Monospace">PlyB_C</text>
    </g>
    <g transform="translate(27.5, 5)" dataentity="PF22693.1">
        <path d="m5,0h123.5h5v10h-5h-123.5h-5v-10h5z" fill="#e3712b" mask="url(#PF22693.1_0)" />
        <text x="66.75" y="8" text-anchor="middle" font-size="7.5" fill="white" opacity="1" data-maxwidth="61" font-family="Monospace">MACPF_1</text>
    </g>
    <g transform="translate(59.5, 5)" dataentity="PF01823.24">
        <path d="m5,0h94.5h5v10h-5h-94.5h-5v-10h5z" fill="#83daac" mask="url(#PF01823.24_0)" />
        <text x="52.25" y="8" text-anchor="middle" font-size="7.5" fill="white" opacity="1" data-maxwidth="61" font-family="Monospace">MACPF</text>
    </g>
</svg>