<svg width="212.0" height="20" viewBox="0 0 212.0 20" style="width: 424.0px; height: 40px" xmlns="http://www.w3.org/2000/svg">
    <defs>
        <mask id="PF06441.18_0" width="60.5" height="10" fill="#fff">
            <rect x="0" y="0" width="0.5" height="10" opacity="0.6" />
            <rect x="0.5" y="0" width="59.5" height="10" opacity="1" />
            <rect x="60.0" y="0" width="0.5" height="10" opacity="0.6" />
        </mask>
        <mask id="PF00561.26_0" width="76.0" height="10" fill="#fff">
            <rect x="0" y="0" width="0.5" height="10" opacity="0.6" />
            <rect x="0.5" y="0" width="67.5" height="10" opacity="1" />
            <rect x="68.0" y="0" width="8.0" height="10" opacity="0.6" />
        </mask>
    </defs>
    <g transform="translate(0 10)">
        <rect x="0" y="-2.5" width="210.0" height="5" fill="#d8d8d8" rx="2.5" ry="2.5" />
    </g>
    <g transform="translate(4.0, 5)" dataentity="PF06441.18">
        <path d="m5,0h50.5h5v10h-5h-50.5h-5v-10h5z" fill="#43e3be" mask="url(#PF06441.18_0)" />
        <text x="30.25" y="8" text-anchor="middle" font-size="7.5" fill="white" opacity="1" data-maxwidth="61" font-family="Monospace">EHN</text>
    </g>
    <g transform="translate(57.0, 5)" dataentity="PF00561.26">
        <path d="m5,0h66.0h5v10h-5h-66.0h-5v-10h5z" fill="#3a01a2" mask="url(#PF00561.26_0)" />
        <text x="38.0" y="8" text-anchor="middle" font-size="7.5" fill="white" opacity="1" data-maxwidth="61" font-family="Monospace">Abhydrolase_1</text>
    </g>
</svg>