<svg width="255.5" height="20" viewBox="0 0 255.5 20" style="width: 511.0px; height: 40px" xmlns="http://www.w3.org/2000/svg">
    <defs>
        <mask id="PF18684.6_0" width="87.0" height="10" fill="#fff">
            <rect x="0" y="0" width="0.0" height="10" opacity="0.6" />
            <rect x="0.0" y="0" width="87.0" height="10" opacity="1" />
            <rect x="87.0" y="0" width="0.0" height="10" opacity="0.6" />
        </mask>
        <mask id="PF22693.1_0" width="133.5" height="10" fill="#fff">
            <rect x="0" y="0" width="0.0" height="10" opacity="0.6" />
            <rect x="0.0" y="0" width="131.5" height="10" opacity="1" />
            <rect x="131.5" y="0" width="2.0" height="10" opacity="0.6" />
        </mask>
        <mask id="PF01823.24_1" width="101.5" height="10" fill="#fff">
            <rect x="0" y="0" width="0.5" height="10" opacity="0.6" />
            <rect x="0.5" y="0" width="99.0" height="10" opacity="1" />
            <rect x="99.5" y="0" width="2.0" height="10" opacity="0.6" />
        </mask>
    </defs>
    <g transform="translate(0 10)">
        <rect x="0" y="-2.5" width="253.5" height="5" fill="#d8d8d8" rx="2.5" ry="2.5" />
    </g>
    <g transform="translate(164.0, 5)" dataentity="PF18684.6">
        <path d="m5,0h77.0h5v10h-5h-77.0h-5v-10h5z" fill="#43e3be" mask="url(#PF18684.6_0)" />
        <text x="43.5" y="8" text-anchor="middle" font-size="7.5" fill="white" opacity="1" data-maxwidth="61" font-family="Monospace">PlyB_C</text>
    </g>
    <g transform="translate(27.5, 5)" dataentity="PF22693.1">
        <path d="m5,0h123.5h5v10h-5h-123.5h-5v-10h5z" fill="#e3712b" mask="url(#PF22693.1_0)" />
        <text x="66.75" y="8" text-anchor="middle" font-size="7.5" fill="white" opacity="1" data-maxwidth="61" font-family="Monospace">MACPF_1</text>
    </g>
    <g transform="translate(62.0, 5)" dataentity="PF01823.24">
        <path d="m5,0h91.5h5v10h-5h-91.5h-5v-10h5z" fill="#83daac" mask="url(#PF01823.24_1)" />
        <text x="50.75" y="8" text-anchor="middle" font-size="7.5" fill="white" opacity="1" data-maxwidth="61" font-family="Monospace">MACPF</text>
    </g>
</svg>