<svg width="247.5" height="20" viewBox="0 0 247.5 20" style="width: 495.0px; height: 40px" xmlns="http://www.w3.org/2000/svg">
    <defs>
        <mask id="PF22693.1_0" width="120.0" height="10" fill="#fff">
            <rect x="0" y="0" width="9.5" height="10" opacity="0.6" />
            <rect x="9.5" y="0" width="108.5" height="10" opacity="1" />
            <rect x="118.0" y="0" width="2.0" height="10" opacity="0.6" />
        </mask>
        <mask id="PF01823.24_0" width="85.5" height="10" fill="#fff">
            <rect x="0" y="0" width="1.0" height="10" opacity="0.6" />
            <rect x="1.0" y="0" width="75.5" height="10" opacity="1" />
            <rect x="76.5" y="0" width="9.0" height="10" opacity="0.6" />
        </mask>
    </defs>
    <g transform="translate(0 10)">
        <rect x="0" y="-2.5" width="245.5" height="5" fill="#d8d8d8" rx="2.5" ry="2.5" />
    </g>
    <g transform="translate(104.5, 5)" dataentity="PF22693.1">
        <path d="m5,0h110.0h5v10h-5h-110.0h-5v-10h5z" fill="#e3712b" mask="url(#PF22693.1_0)" />
        <text x="60.0" y="8" text-anchor="middle" font-size="7.5" fill="white" opacity="1" data-maxwidth="61" font-family="Monospace">MACPF_1</text>
    </g>
    <g transform="translate(134.5, 5)" dataentity="PF01823.24">
        <path d="m5,0h75.5h5v10h-5h-75.5h-5v-10h5z" fill="#83daac" mask="url(#PF01823.24_0)" />
        <text x="42.75" y="8" text-anchor="middle" font-size="7.5" fill="white" opacity="1" data-maxwidth="61" font-family="Monospace">MACPF</text>
    </g>
</svg>