<svg width="342.0" height="20" viewBox="0 0 342.0 20" style="width: 684.0px; height: 40px" xmlns="http://www.w3.org/2000/svg">
    <defs>
        <mask id="PF01823.24_0" width="79.0" height="10" fill="#fff">
            <rect x="0" y="0" width="6.0" height="10" opacity="0.6" />
            <rect x="6.0" y="0" width="49.0" height="10" opacity="1" />
            <rect x="55.0" y="0" width="24.0" height="10" opacity="0.6" />
        </mask>
        <mask id="PF04548.22_0" width="46.5" height="10" fill="#fff">
            <rect x="0" y="0" width="0.5" height="10" opacity="0.6" />
            <rect x="0.5" y="0" width="33.5" height="10" opacity="1" />
            <rect x="34.0" y="0" width="12.5" height="10" opacity="0.6" />
        </mask>
        <mask id="PF01926.29_0" width="57.0" height="10" fill="#fff">
            <rect x="0" y="0" width="0.5" height="10" opacity="0.6" />
            <rect x="0.5" y="0" width="31.0" height="10" opacity="1" />
            <rect x="31.5" y="0" width="25.5" height="10" opacity="0.6" />
        </mask>
    </defs>
    <g transform="translate(0 10)">
        <rect x="0" y="-2.5" width="340.0" height="5" fill="#d8d8d8" rx="2.5" ry="2.5" />
    </g>
    <g transform="translate(213.0, 5)" dataentity="PF01823.24">
        <path d="m5,0h69.0h5v10h-5h-69.0h-5v-10h5z" fill="#83daac" mask="url(#PF01823.24_0)" />
        <text x="39.5" y="8" text-anchor="middle" font-size="7.5" fill="white" opacity="1" data-maxwidth="61" font-family="Monospace">MACPF</text>
    </g>
    <g transform="translate(25.0, 5)" dataentity="PF04548.22">
        <path d="m5,0h36.5h5v10h-5h-36.5h-5v-10h5z" fill="#5ec2d3" mask="url(#PF04548.22_0)" />
        <text x="23.25" y="8" text-anchor="middle" font-size="7.5" fill="white" opacity="1" data-maxwidth="61" font-family="Monospace">AIG1</text>
    </g>
    <g transform="translate(25.5, 5)" dataentity="PF01926.29">
        <path d="m5,0h47.0h5v10h-5h-47.0h-5v-10h5z" fill="#357bdb" mask="url(#PF01926.29_0)" />
        <text x="28.5" y="8" text-anchor="middle" font-size="7.5" fill="white" opacity="1" data-maxwidth="61" font-family="Monospace">MMR_HSR1</text>
    </g>
</svg>