<svg width="466.5" height="20" viewBox="0 0 466.5 20" style="width: 933.0px; height: 40px" xmlns="http://www.w3.org/2000/svg">
    <defs>
        <mask id="PF01823.24_0" width="96.5" height="10" fill="#fff">
            <rect x="0" y="0" width="4.5" height="10" opacity="0.6" />
            <rect x="4.5" y="0" width="40.0" height="10" opacity="1" />
            <rect x="44.5" y="0" width="52.0" height="10" opacity="0.6" />
        </mask>
        <mask id="PF01823.24_1" width="89.0" height="10" fill="#fff">
            <rect x="0" y="0" width="19.0" height="10" opacity="0.6" />
            <rect x="19.0" y="0" width="68.0" height="10" opacity="1" />
            <rect x="87.0" y="0" width="2.0" height="10" opacity="0.6" />
        </mask>
    </defs>
    <g transform="translate(0 10)">
        <rect x="0" y="-2.5" width="464.5" height="5" fill="#d8d8d8" rx="2.5" ry="2.5" />
    </g>
    <g transform="translate(61.5, 5)" dataentity="PF01823.24">
        <path d="m5,0h86.5h5v10h-5h-86.5h-5v-10h5z" fill="#83daac" mask="url(#PF01823.24_0)" />
        <text x="48.25" y="8" text-anchor="middle" font-size="7.5" fill="white" opacity="1" data-maxwidth="61" font-family="Monospace">MACPF</text>
    </g>
    <g transform="translate(269.0, 5)" dataentity="PF01823.24">
        <path d="m5,0h79.0h5v10h-5h-79.0h-5v-10h5z" fill="#83daac" mask="url(#PF01823.24_1)" />
        <text x="44.5" y="8" text-anchor="middle" font-size="7.5" fill="white" opacity="1" data-maxwidth="61" font-family="Monospace">MACPF</text>
    </g>
</svg>