<svg width="180.5" height="20" viewBox="0 0 180.5 20" style="width: 361.0px; height: 40px" xmlns="http://www.w3.org/2000/svg">
    <defs>
        <mask id="PF22693.1_0" width="105.0" height="10" fill="#fff">
            <rect x="0" y="0" width="0.5" height="10" opacity="0.6" />
            <rect x="0.5" y="0" width="104.5" height="10" opacity="1" />
            <rect x="105.0" y="0" width="0.0" height="10" opacity="0.6" />
        </mask>
        <mask id="PF18885.6_1" width="68.5" height="10" fill="#fff">
            <rect x="0" y="0" width="3.0" height="10" opacity="0.6" />
            <rect x="3.0" y="0" width="65.0" height="10" opacity="1" />
            <rect x="68.0" y="0" width="0.5" height="10" opacity="0.6" />
        </mask>
        <mask id="PF01823.24_0" width="98.0" height="10" fill="#fff">
            <rect x="0" y="0" width="3.0" height="10" opacity="0.6" />
            <rect x="3.0" y="0" width="81.5" height="10" opacity="1" />
            <rect x="84.5" y="0" width="13.5" height="10" opacity="0.6" />
        </mask>
    </defs>
    <g transform="translate(0 10)">
        <rect x="0" y="-2.5" width="178.5" height="5" fill="#d8d8d8" rx="2.5" ry="2.5" />
    </g>
    <g transform="translate(0.5, 5)" dataentity="PF22693.1">
        <path d="m5,0h95.0h5v10h-5h-95.0h-5v-10h5z" fill="#e3712b" mask="url(#PF22693.1_0)" />
        <text x="52.5" y="8" text-anchor="middle" font-size="7.5" fill="white" opacity="1" data-maxwidth="61" font-family="Monospace">MACPF_1</text>
    </g>
    <g transform="translate(108.5, 5)" dataentity="PF18885.6">
        <path d="m5,0h58.5h5v10h-5h-58.5h-5v-10h5z" fill="#c453ce" mask="url(#PF18885.6_1)" />
        <text x="34.25" y="8" text-anchor="middle" font-size="7.5" fill="white" opacity="1" data-maxwidth="61" font-family="Monospace">DUF5648</text>
    </g>
    <g transform="translate(7.5, 5)" dataentity="PF01823.24">
        <path d="m5,0h88.0h5v10h-5h-88.0h-5v-10h5z" fill="#83daac" mask="url(#PF01823.24_0)" />
        <text x="49.0" y="8" text-anchor="middle" font-size="7.5" fill="white" opacity="1" data-maxwidth="61" font-family="Monospace">MACPF</text>
    </g>
</svg>