<svg width="53.0" height="20" viewBox="0 0 53.0 20" style="width: 106.0px; height: 40px" xmlns="http://www.w3.org/2000/svg">
    <defs>
        <mask id="PF00045.24_0" width="22.5" height="10" fill="#fff">
            <rect x="0" y="0" width="1.5" height="10" opacity="0.6" />
            <rect x="1.5" y="0" width="20.5" height="10" opacity="1" />
            <rect x="22.0" y="0" width="0.5" height="10" opacity="0.6" />
        </mask>
        <mask id="PF00045.24_1" width="21.0" height="10" fill="#fff">
            <rect x="0" y="0" width="0.0" height="10" opacity="0.6" />
            <rect x="0.0" y="0" width="13.0" height="10" opacity="1" />
            <rect x="13.0" y="0" width="8.0" height="10" opacity="0.6" />
        </mask>
    </defs>
    <g transform="translate(0 10)">
        <rect x="0" y="-2.5" width="51.0" height="5" fill="#d8d8d8" rx="2.5" ry="2.5" />
    </g>
    <g transform="translate(1.0, 5)" dataentity="PF00045.24">
        <path d="m5,0h12.5h5v10h-5h-12.5h-5v-10h5z" fill="#15e61f" mask="url(#PF00045.24_0)" />
        <text x="11.25" y="8" text-anchor="middle" font-size="7.5" fill="white" opacity="1" data-maxwidth="61" font-family="Monospace">Hemopexin</text>
    </g>
    <g transform="translate(26.5, 5)" dataentity="PF00045.24">
        <path d="m5,0h11.0h5v10h-5h-11.0h-5v-10h5z" fill="#15e61f" mask="url(#PF00045.24_1)" />
        <text x="10.5" y="8" text-anchor="middle" font-size="7.5" fill="white" opacity="1" data-maxwidth="61" font-family="Monospace">Hemopexin</text>
    </g>
</svg>