<svg width="253.0" height="20" viewBox="0 0 253.0 20" style="width: 506.0px; height: 40px" xmlns="http://www.w3.org/2000/svg">
    <defs>
        <mask id="PF22693.1_0" width="129.0" height="10" fill="#fff">
            <rect x="0" y="0" width="0.5" height="10" opacity="0.6" />
            <rect x="0.5" y="0" width="127.0" height="10" opacity="1" />
            <rect x="127.5" y="0" width="1.5" height="10" opacity="0.6" />
        </mask>
        <mask id="PF13385.13_0" width="86.0" height="10" fill="#fff">
            <rect x="0" y="0" width="4.5" height="10" opacity="0.6" />
            <rect x="4.5" y="0" width="81.5" height="10" opacity="1" />
            <rect x="86.0" y="0" width="0.0" height="10" opacity="0.6" />
        </mask>
    </defs>
    <g transform="translate(0 10)">
        <rect x="0" y="-2.5" width="251.0" height="5" fill="#d8d8d8" rx="2.5" ry="2.5" />
    </g>
    <g transform="translate(10.5, 5)" dataentity="PF22693.1">
        <path d="m5,0h119.0h5v10h-5h-119.0h-5v-10h5z" fill="#e3712b" mask="url(#PF22693.1_0)" />
        <text x="64.5" y="8" text-anchor="middle" font-size="7.5" fill="white" opacity="1" data-maxwidth="61" font-family="Monospace">MACPF_1</text>
    </g>
    <g transform="translate(149.0, 5)" dataentity="PF13385.13">
        <path d="m5,0h76.0h5v10h-5h-76.0h-5v-10h5z" fill="#d4f043" mask="url(#PF13385.13_0)" />
        <text x="43.0" y="8" text-anchor="middle" font-size="7.5" fill="white" opacity="1" data-maxwidth="61" font-family="Monospace">Laminin_G_3</text>
    </g>
</svg>