<svg width="281.0" height="20" viewBox="0 0 281.0 20" style="width: 562.0px; height: 40px" xmlns="http://www.w3.org/2000/svg">
    <defs>
        <mask id="PF24883.1_0" width="83.0" height="10" fill="#fff">
            <rect x="0" y="0" width="4.0" height="10" opacity="0.6" />
            <rect x="4.0" y="0" width="79.0" height="10" opacity="1" />
            <rect x="83.0" y="0" width="0.0" height="10" opacity="0.6" />
        </mask>
        <mask id="PF05729.18_0" width="93.5" height="10" fill="#fff">
            <rect x="0" y="0" width="0.0" height="10" opacity="0.6" />
            <rect x="0.0" y="0" width="85.5" height="10" opacity="1" />
            <rect x="85.5" y="0" width="8.0" height="10" opacity="0.6" />
        </mask>
    </defs>
    <g transform="translate(0 10)">
        <rect x="0" y="-2.5" width="279.0" height="5" fill="#d8d8d8" rx="2.5" ry="2.5" />
    </g>
    <g transform="translate(2.0, 5)" dataentity="PF24883.1">
        <path d="m5,0h73.0h5v10h-5h-73.0h-5v-10h5z" fill="#871e87" mask="url(#PF24883.1_0)" />
        <text x="41.5" y="8" text-anchor="middle" font-size="7.5" fill="white" opacity="1" data-maxwidth="61" font-family="Monospace">NPHP3_N</text>
    </g>
    <g transform="translate(12.0, 5)" dataentity="PF05729.18">
        <path d="m5,0h83.5h5v10h-5h-83.5h-5v-10h5z" fill="#d97493" mask="url(#PF05729.18_0)" />
        <text x="46.75" y="8" text-anchor="middle" font-size="7.5" fill="white" opacity="1" data-maxwidth="61" font-family="Monospace">NACHT</text>
    </g>
</svg>