<svg width="384.0" height="20" viewBox="0 0 384.0 20" style="width: 768.0px; height: 40px" xmlns="http://www.w3.org/2000/svg">
    <defs>
        <mask id="PF01926.29_0" width="47.5" height="10" fill="#fff">
            <rect x="0" y="0" width="1.0" height="10" opacity="0.6" />
            <rect x="1.0" y="0" width="31.0" height="10" opacity="1" />
            <rect x="32.0" y="0" width="15.5" height="10" opacity="0.6" />
        </mask>
        <mask id="PF01823.24_0" width="42.5" height="10" fill="#fff">
            <rect x="0" y="0" width="7.5" height="10" opacity="0.6" />
            <rect x="7.5" y="0" width="26.5" height="10" opacity="1" />
            <rect x="34.0" y="0" width="8.5" height="10" opacity="0.6" />
        </mask>
    </defs>
    <g transform="translate(0 10)">
        <rect x="0" y="-2.5" width="382.0" height="5" fill="#d8d8d8" rx="2.5" ry="2.5" />
    </g>
    <g transform="translate(51.0, 5)" dataentity="PF01926.29">
        <path d="m5,0h37.5h5v10h-5h-37.5h-5v-10h5z" fill="#357bdb" mask="url(#PF01926.29_0)" />
        <text x="23.75" y="8" text-anchor="middle" font-size="7.5" fill="white" opacity="1" data-maxwidth="61" font-family="Monospace">MMR_HSR1</text>
    </g>
    <g transform="translate(251.0, 5)" dataentity="PF01823.24">
        <path d="m5,0h32.5h5v10h-5h-32.5h-5v-10h5z" fill="#83daac" mask="url(#PF01823.24_0)" />
        <text x="21.25" y="8" text-anchor="middle" font-size="7.5" fill="white" opacity="1" data-maxwidth="61" font-family="Monospace">MACPF</text>
    </g>
</svg>