<svg width="94.0" height="20" viewBox="0 0 94.0 20" style="width: 188.0px; height: 40px" xmlns="http://www.w3.org/2000/svg">
    <defs>
        <mask id="PF00025.27_0" width="89.0" height="10" fill="#fff">
            <rect x="0" y="0" width="1.5" height="10" opacity="0.6" />
            <rect x="1.5" y="0" width="86.5" height="10" opacity="1" />
            <rect x="88.0" y="0" width="1.0" height="10" opacity="0.6" />
        </mask>
        <mask id="PF00071.28_0" width="80.0" height="10" fill="#fff">
            <rect x="0" y="0" width="0.5" height="10" opacity="0.6" />
            <rect x="0.5" y="0" width="76.5" height="10" opacity="1" />
            <rect x="77.0" y="0" width="3.0" height="10" opacity="0.6" />
        </mask>
        <mask id="PF08477.19_0" width="55.5" height="10" fill="#fff">
            <rect x="0" y="0" width="0.5" height="10" opacity="0.6" />
            <rect x="0.5" y="0" width="55.0" height="10" opacity="1" />
            <rect x="55.5" y="0" width="0.0" height="10" opacity="0.6" />
        </mask>
        <mask id="PF09439.16_0" width="77.5" height="10" fill="#fff">
            <rect x="0" y="0" width="0.5" height="10" opacity="0.6" />
            <rect x="0.5" y="0" width="58.5" height="10" opacity="1" />
            <rect x="59.0" y="0" width="18.5" height="10" opacity="0.6" />
        </mask>
        <mask id="PF01926.29_0" width="54.5" height="10" fill="#fff">
            <rect x="0" y="0" width="0.0" height="10" opacity="0.6" />
            <rect x="0.0" y="0" width="54.0" height="10" opacity="1" />
            <rect x="54.0" y="0" width="0.5" height="10" opacity="0.6" />
        </mask>
        <mask id="PF04670.18_0" width="73.5" height="10" fill="#fff">
            <rect x="0" y="0" width="1.0" height="10" opacity="0.6" />
            <rect x="1.0" y="0" width="56.5" height="10" opacity="1" />
            <rect x="57.5" y="0" width="16.0" height="10" opacity="0.6" />
        </mask>
        <mask id="PF02258.21_0" width="27.5" height="10" fill="#fff">
            <rect x="0" y="0" width="2.5" height="10" opacity="0.6" />
            <rect x="2.5" y="0" width="23.5" height="10" opacity="1" />
            <rect x="26.0" y="0" width="1.5" height="10" opacity="0.6" />
        </mask>
    </defs>
    <g transform="translate(0 10)">
        <rect x="0" y="-2.5" width="92.0" height="5" fill="#d8d8d8" rx="2.5" ry="2.5" />
    </g>
    <g transform="translate(2.0, 5)" dataentity="PF00025.27">
        <path d="m5,0h79.0h5v10h-5h-79.0h-5v-10h5z" fill="#73f44b" mask="url(#PF00025.27_0)" />
        <text x="44.5" y="8" text-anchor="middle" font-size="7.5" fill="white" opacity="1" data-maxwidth="61" font-family="Monospace">Arf</text>
    </g>
    <g transform="translate(10.5, 5)" dataentity="PF00071.28">
        <path d="m5,0h70.0h5v10h-5h-70.0h-5v-10h5z" fill="#39658f" mask="url(#PF00071.28_0)" />
        <text x="40.0" y="8" text-anchor="middle" font-size="7.5" fill="white" opacity="1" data-maxwidth="61" font-family="Monospace">Ras</text>
    </g>
    <g transform="translate(10.5, 5)" dataentity="PF08477.19">
        <path d="m5,0h45.5h5v10h-5h-45.5h-5v-10h5z" fill="#83398a" mask="url(#PF08477.19_0)" />
        <text x="27.75" y="8" text-anchor="middle" font-size="7.5" fill="white" opacity="1" data-maxwidth="61" font-family="Monospace">Roc</text>
    </g>
    <g transform="translate(8.5, 5)" dataentity="PF09439.16">
        <path d="m5,0h67.5h5v10h-5h-67.5h-5v-10h5z" fill="#84bac9" mask="url(#PF09439.16_0)" />
        <text x="38.75" y="8" text-anchor="middle" font-size="7.5" fill="white" opacity="1" data-maxwidth="61" font-family="Monospace">SRPRB</text>
    </g>
    <g transform="translate(10.5, 5)" dataentity="PF01926.29">
        <path d="m5,0h44.5h5v10h-5h-44.5h-5v-10h5z" fill="#357bdb" mask="url(#PF01926.29_0)" />
        <text x="27.25" y="8" text-anchor="middle" font-size="7.5" fill="white" opacity="1" data-maxwidth="61" font-family="Monospace">MMR_HSR1</text>
    </g>
    <g transform="translate(10.5, 5)" dataentity="PF04670.18">
        <path d="m5,0h63.5h5v10h-5h-63.5h-5v-10h5z" fill="#b0650a" mask="url(#PF04670.18_0)" />
        <text x="36.75" y="8" text-anchor="middle" font-size="7.5" fill="white" opacity="1" data-maxwidth="61" font-family="Monospace">Gtr1_RagA</text>
    </g>
    <g transform="translate(39.5, 5)" dataentity="PF02258.21">
        <path d="m5,0h17.5h5v10h-5h-17.5h-5v-10h5z" fill="#c453ce" mask="url(#PF02258.21_0)" />
        <text x="13.75" y="8" text-anchor="middle" font-size="7.5" fill="white" opacity="1" data-maxwidth="61" font-family="Monospace">SLT_beta</text>
    </g>
</svg>