<svg width="173.0" height="20" viewBox="0 0 173.0 20" style="width: 346.0px; height: 40px" xmlns="http://www.w3.org/2000/svg">
    <defs>
        <mask id="PF22693.1_0" width="130.5" height="10" fill="#fff">
            <rect x="0" y="0" width="0.0" height="10" opacity="0.6" />
            <rect x="0.0" y="0" width="129.0" height="10" opacity="1" />
            <rect x="129.0" y="0" width="1.5" height="10" opacity="0.6" />
        </mask>
        <mask id="PF18684.6_1" width="36.5" height="10" fill="#fff">
            <rect x="0" y="0" width="0.0" height="10" opacity="0.6" />
            <rect x="0.0" y="0" width="36.0" height="10" opacity="1" />
            <rect x="36.0" y="0" width="0.5" height="10" opacity="0.6" />
        </mask>
        <mask id="PF01823.24_1" width="103.0" height="10" fill="#fff">
            <rect x="0" y="0" width="9.5" height="10" opacity="0.6" />
            <rect x="9.5" y="0" width="78.0" height="10" opacity="1" />
            <rect x="87.5" y="0" width="15.5" height="10" opacity="0.6" />
        </mask>
    </defs>
    <g transform="translate(0 10)">
        <rect x="0" y="-2.5" width="171.0" height="5" fill="#d8d8d8" rx="2.5" ry="2.5" />
    </g>
    <g transform="translate(0.5, 5)" dataentity="PF22693.1">
        <path d="m5,0h120.5h5v10h-5h-120.5h-5v-10h5z" fill="#e3712b" mask="url(#PF22693.1_0)" />
        <text x="65.25" y="8" text-anchor="middle" font-size="7.5" fill="white" opacity="1" data-maxwidth="61" font-family="Monospace">MACPF_1</text>
    </g>
    <g transform="translate(134.0, 5)" dataentity="PF18684.6">
        <path d="m5,0h26.5h5v10h-5h-26.5h-5v-10h5z" fill="#43e3be" mask="url(#PF18684.6_1)" />
        <text x="18.25" y="8" text-anchor="middle" font-size="7.5" fill="white" opacity="1" data-maxwidth="61" font-family="Monospace">PlyB_C</text>
    </g>
    <g transform="translate(30.0, 5)" dataentity="PF01823.24">
        <path d="m5,0h93.0h5v10h-5h-93.0h-5v-10h5z" fill="#83daac" mask="url(#PF01823.24_1)" />
        <text x="51.5" y="8" text-anchor="middle" font-size="7.5" fill="white" opacity="1" data-maxwidth="61" font-family="Monospace">MACPF</text>
    </g>
</svg>