<svg width="202.5" height="20" viewBox="0 0 202.5 20" style="width: 405.0px; height: 40px" xmlns="http://www.w3.org/2000/svg">
    <defs>
        <mask id="PF18684.6_0" width="86.0" height="10" fill="#fff">
            <rect x="0" y="0" width="0.0" height="10" opacity="0.6" />
            <rect x="0.0" y="0" width="86.0" height="10" opacity="1" />
            <rect x="86.0" y="0" width="0.0" height="10" opacity="0.6" />
        </mask>
        <mask id="PF22693.1_0" width="109.0" height="10" fill="#fff">
            <rect x="0" y="0" width="3.0" height="10" opacity="0.6" />
            <rect x="3.0" y="0" width="105.5" height="10" opacity="1" />
            <rect x="108.5" y="0" width="0.5" height="10" opacity="0.6" />
        </mask>
        <mask id="PF01823.24_0" width="102.5" height="10" fill="#fff">
            <rect x="0" y="0" width="23.5" height="10" opacity="0.6" />
            <rect x="23.5" y="0" width="68.5" height="10" opacity="1" />
            <rect x="92.0" y="0" width="10.5" height="10" opacity="0.6" />
        </mask>
    </defs>
    <g transform="translate(0 10)">
        <rect x="0" y="-2.5" width="200.5" height="5" fill="#d8d8d8" rx="2.5" ry="2.5" />
    </g>
    <g transform="translate(112.5, 5)" dataentity="PF18684.6">
        <path d="m5,0h76.0h5v10h-5h-76.0h-5v-10h5z" fill="#43e3be" mask="url(#PF18684.6_0)" />
        <text x="43.0" y="8" text-anchor="middle" font-size="7.5" fill="white" opacity="1" data-maxwidth="61" font-family="Monospace">PlyB_C</text>
    </g>
    <g transform="translate(0.5, 5)" dataentity="PF22693.1">
        <path d="m5,0h99.0h5v10h-5h-99.0h-5v-10h5z" fill="#e3712b" mask="url(#PF22693.1_0)" />
        <text x="54.5" y="8" text-anchor="middle" font-size="7.5" fill="white" opacity="1" data-maxwidth="61" font-family="Monospace">MACPF_1</text>
    </g>
    <g transform="translate(8.5, 5)" dataentity="PF01823.24">
        <path d="m5,0h92.5h5v10h-5h-92.5h-5v-10h5z" fill="#83daac" mask="url(#PF01823.24_0)" />
        <text x="51.25" y="8" text-anchor="middle" font-size="7.5" fill="white" opacity="1" data-maxwidth="61" font-family="Monospace">MACPF</text>
    </g>
</svg>