<svg width="225.0" height="20" viewBox="0 0 225.0 20" style="width: 450.0px; height: 40px" xmlns="http://www.w3.org/2000/svg">
    <defs>
        <mask id="PF22693.1_0" width="126.5" height="10" fill="#fff">
            <rect x="0" y="0" width="0.0" height="10" opacity="0.6" />
            <rect x="0.0" y="0" width="124.0" height="10" opacity="1" />
            <rect x="124.0" y="0" width="2.5" height="10" opacity="0.6" />
        </mask>
        <mask id="PF18684.6_0" width="61.0" height="10" fill="#fff">
            <rect x="0" y="0" width="7.5" height="10" opacity="0.6" />
            <rect x="7.5" y="0" width="53.5" height="10" opacity="1" />
            <rect x="61.0" y="0" width="0.0" height="10" opacity="0.6" />
        </mask>
        <mask id="PF01823.24_0" width="89.0" height="10" fill="#fff">
            <rect x="0" y="0" width="23.5" height="10" opacity="0.6" />
            <rect x="23.5" y="0" width="63.5" height="10" opacity="1" />
            <rect x="87.0" y="0" width="2.0" height="10" opacity="0.6" />
        </mask>
    </defs>
    <g transform="translate(0 10)">
        <rect x="0" y="-2.5" width="223.0" height="5" fill="#d8d8d8" rx="2.5" ry="2.5" />
    </g>
    <g transform="translate(32.0, 5)" dataentity="PF22693.1">
        <path d="m5,0h116.5h5v10h-5h-116.5h-5v-10h5z" fill="#e3712b" mask="url(#PF22693.1_0)" />
        <text x="63.25" y="8" text-anchor="middle" font-size="7.5" fill="white" opacity="1" data-maxwidth="61" font-family="Monospace">MACPF_1</text>
    </g>
    <g transform="translate(161.5, 5)" dataentity="PF18684.6">
        <path d="m5,0h51.0h5v10h-5h-51.0h-5v-10h5z" fill="#43e3be" mask="url(#PF18684.6_0)" />
        <text x="30.5" y="8" text-anchor="middle" font-size="7.5" fill="white" opacity="1" data-maxwidth="61" font-family="Monospace">PlyB_C</text>
    </g>
    <g transform="translate(64.5, 5)" dataentity="PF01823.24">
        <path d="m5,0h79.0h5v10h-5h-79.0h-5v-10h5z" fill="#83daac" mask="url(#PF01823.24_0)" />
        <text x="44.5" y="8" text-anchor="middle" font-size="7.5" fill="white" opacity="1" data-maxwidth="61" font-family="Monospace">MACPF</text>
    </g>
</svg>