<svg width="223.0" height="20" viewBox="0 0 223.0 20" style="width: 446.0px; height: 40px" xmlns="http://www.w3.org/2000/svg">
    <defs>
        <mask id="PF01823.24_0" width="98.5" height="10" fill="#fff">
            <rect x="0" y="0" width="17.5" height="10" opacity="0.6" />
            <rect x="17.5" y="0" width="79.0" height="10" opacity="1" />
            <rect x="96.5" y="0" width="2.0" height="10" opacity="0.6" />
        </mask>
        <mask id="PF22693.1_0" width="119.5" height="10" fill="#fff">
            <rect x="0" y="0" width="9.0" height="10" opacity="0.6" />
            <rect x="9.0" y="0" width="106.0" height="10" opacity="1" />
            <rect x="115.0" y="0" width="4.5" height="10" opacity="0.6" />
        </mask>
    </defs>
    <g transform="translate(0 10)">
        <rect x="0" y="-2.5" width="221.0" height="5" fill="#d8d8d8" rx="2.5" ry="2.5" />
    </g>
    <g transform="translate(17.5, 5)" dataentity="PF01823.24">
        <path d="m5,0h88.5h5v10h-5h-88.5h-5v-10h5z" fill="#83daac" mask="url(#PF01823.24_0)" />
        <text x="49.25" y="8" text-anchor="middle" font-size="7.5" fill="white" opacity="1" data-maxwidth="61" font-family="Monospace">MACPF</text>
    </g>
    <g transform="translate(4.5, 5)" dataentity="PF22693.1">
        <path d="m5,0h109.5h5v10h-5h-109.5h-5v-10h5z" fill="#e3712b" mask="url(#PF22693.1_0)" />
        <text x="59.75" y="8" text-anchor="middle" font-size="7.5" fill="white" opacity="1" data-maxwidth="61" font-family="Monospace">MACPF_1</text>
    </g>
</svg>