<svg width="223.5" height="20" viewBox="0 0 223.5 20" style="width: 447.0px; height: 40px" xmlns="http://www.w3.org/2000/svg">
    <defs>
        <mask id="PF22693.1_0" width="129.0" height="10" fill="#fff">
            <rect x="0" y="0" width="11.5" height="10" opacity="0.6" />
            <rect x="11.5" y="0" width="117.5" height="10" opacity="1" />
            <rect x="129.0" y="0" width="0.0" height="10" opacity="0.6" />
        </mask>
        <mask id="PF18885.6_1" width="56.0" height="10" fill="#fff">
            <rect x="0" y="0" width="10.5" height="10" opacity="0.6" />
            <rect x="10.5" y="0" width="45.0" height="10" opacity="1" />
            <rect x="55.5" y="0" width="0.5" height="10" opacity="0.6" />
        </mask>
        <mask id="PF18885.6_2" width="68.5" height="10" fill="#fff">
            <rect x="0" y="0" width="3.5" height="10" opacity="0.6" />
            <rect x="3.5" y="0" width="60.0" height="10" opacity="1" />
            <rect x="63.5" y="0" width="5.0" height="10" opacity="0.6" />
        </mask>
    </defs>
    <g transform="translate(0 10)">
        <rect x="0" y="-2.5" width="221.5" height="5" fill="#d8d8d8" rx="2.5" ry="2.5" />
    </g>
    <g transform="translate(18.5, 5)" dataentity="PF22693.1">
        <path d="m5,0h119.0h5v10h-5h-119.0h-5v-10h5z" fill="#e3712b" mask="url(#PF22693.1_0)" />
        <text x="64.5" y="8" text-anchor="middle" font-size="7.5" fill="white" opacity="1" data-maxwidth="61" font-family="Monospace">MACPF_1</text>
    </g>
    <g transform="translate(139.0, 5)" dataentity="PF18885.6">
        <path d="m5,0h46.0h5v10h-5h-46.0h-5v-10h5z" fill="#c453ce" mask="url(#PF18885.6_1)" />
        <text x="28.0" y="8" text-anchor="middle" font-size="7.5" fill="white" opacity="1" data-maxwidth="61" font-family="Monospace">DUF5648</text>
    </g>
    <g transform="translate(151.5, 5)" dataentity="PF18885.6">
        <path d="m5,0h58.5h5v10h-5h-58.5h-5v-10h5z" fill="#c453ce" mask="url(#PF18885.6_2)" />
        <text x="34.25" y="8" text-anchor="middle" font-size="7.5" fill="white" opacity="1" data-maxwidth="61" font-family="Monospace">DUF5648</text>
    </g>
</svg>