<svg width="245.5" height="20" viewBox="0 0 245.5 20" style="width: 491.0px; height: 40px" xmlns="http://www.w3.org/2000/svg">
    <defs>
        <mask id="PF22693.1_0" width="95.0" height="10" fill="#fff">
            <rect x="0" y="0" width="0.0" height="10" opacity="0.6" />
            <rect x="0.0" y="0" width="92.0" height="10" opacity="1" />
            <rect x="92.0" y="0" width="3.0" height="10" opacity="0.6" />
        </mask>
        <mask id="PF22693.1_1" width="41.0" height="10" fill="#fff">
            <rect x="0" y="0" width="8.5" height="10" opacity="0.6" />
            <rect x="8.5" y="0" width="32.5" height="10" opacity="1" />
            <rect x="41.0" y="0" width="0.0" height="10" opacity="0.6" />
        </mask>
        <mask id="PF18684.6_1" width="86.5" height="10" fill="#fff">
            <rect x="0" y="0" width="0.0" height="10" opacity="0.6" />
            <rect x="0.0" y="0" width="86.0" height="10" opacity="1" />
            <rect x="86.0" y="0" width="0.5" height="10" opacity="0.6" />
        </mask>
    </defs>
    <g transform="translate(0 10)">
        <rect x="0" y="-2.5" width="243.5" height="5" fill="#d8d8d8" rx="2.5" ry="2.5" />
    </g>
    <g transform="translate(28.0, 5)" dataentity="PF22693.1">
        <path d="m5,0h85.0h5v10h-5h-85.0h-5v-10h5z" fill="#e3712b" mask="url(#PF22693.1_0)" />
        <text x="47.5" y="8" text-anchor="middle" font-size="7.5" fill="white" opacity="1" data-maxwidth="61" font-family="Monospace">MACPF_1</text>
    </g>
    <g transform="translate(110.5, 5)" dataentity="PF22693.1">
        <path d="m5,0h31.0h5v10h-5h-31.0h-5v-10h5z" fill="#e3712b" mask="url(#PF22693.1_1)" />
        <text x="20.5" y="8" text-anchor="middle" font-size="7.5" fill="white" opacity="1" data-maxwidth="61" font-family="Monospace">MACPF_1</text>
    </g>
    <g transform="translate(154.5, 5)" dataentity="PF18684.6">
        <path d="m5,0h76.5h5v10h-5h-76.5h-5v-10h5z" fill="#43e3be" mask="url(#PF18684.6_1)" />
        <text x="43.25" y="8" text-anchor="middle" font-size="7.5" fill="white" opacity="1" data-maxwidth="61" font-family="Monospace">PlyB_C</text>
    </g>
</svg>