<svg width="270.5" height="20" viewBox="0 0 270.5 20" style="width: 541.0px; height: 40px" xmlns="http://www.w3.org/2000/svg">
    <defs>
        <mask id="PF22693.1_0" width="127.5" height="10" fill="#fff">
            <rect x="0" y="0" width="9.0" height="10" opacity="0.6" />
            <rect x="9.0" y="0" width="118.5" height="10" opacity="1" />
            <rect x="127.5" y="0" width="0.0" height="10" opacity="0.6" />
        </mask>
        <mask id="PF01823.24_0" width="85.5" height="10" fill="#fff">
            <rect x="0" y="0" width="3.0" height="10" opacity="0.6" />
            <rect x="3.0" y="0" width="80.5" height="10" opacity="1" />
            <rect x="83.5" y="0" width="2.0" height="10" opacity="0.6" />
        </mask>
        <mask id="PF18885.6_1" width="60.0" height="10" fill="#fff">
            <rect x="0" y="0" width="17.0" height="10" opacity="0.6" />
            <rect x="17.0" y="0" width="34.0" height="10" opacity="1" />
            <rect x="51.0" y="0" width="9.0" height="10" opacity="0.6" />
        </mask>
    </defs>
    <g transform="translate(0 10)">
        <rect x="0" y="-2.5" width="268.5" height="5" fill="#d8d8d8" rx="2.5" ry="2.5" />
    </g>
    <g transform="translate(59.5, 5)" dataentity="PF22693.1">
        <path d="m5,0h117.5h5v10h-5h-117.5h-5v-10h5z" fill="#e3712b" mask="url(#PF22693.1_0)" />
        <text x="63.75" y="8" text-anchor="middle" font-size="7.5" fill="white" opacity="1" data-maxwidth="61" font-family="Monospace">MACPF_1</text>
    </g>
    <g transform="translate(90.0, 5)" dataentity="PF01823.24">
        <path d="m5,0h75.5h5v10h-5h-75.5h-5v-10h5z" fill="#83daac" mask="url(#PF01823.24_0)" />
        <text x="42.75" y="8" text-anchor="middle" font-size="7.5" fill="white" opacity="1" data-maxwidth="61" font-family="Monospace">MACPF</text>
    </g>
    <g transform="translate(203.5, 5)" dataentity="PF18885.6">
        <path d="m5,0h50.0h5v10h-5h-50.0h-5v-10h5z" fill="#c453ce" mask="url(#PF18885.6_1)" />
        <text x="30.0" y="8" text-anchor="middle" font-size="7.5" fill="white" opacity="1" data-maxwidth="61" font-family="Monospace">DUF5648</text>
    </g>
</svg>