<svg width="285.5" height="20" viewBox="0 0 285.5 20" style="width: 571.0px; height: 40px" xmlns="http://www.w3.org/2000/svg">
    <defs>
        <mask id="PF22693.1_0" width="77.0" height="10" fill="#fff">
            <rect x="0" y="0" width="14.5" height="10" opacity="0.6" />
            <rect x="14.5" y="0" width="60.0" height="10" opacity="1" />
            <rect x="74.5" y="0" width="2.5" height="10" opacity="0.6" />
        </mask>
        <mask id="PF01823.24_1" width="68.0" height="10" fill="#fff">
            <rect x="0" y="0" width="12.0" height="10" opacity="0.6" />
            <rect x="12.0" y="0" width="50.5" height="10" opacity="1" />
            <rect x="62.5" y="0" width="5.5" height="10" opacity="0.6" />
        </mask>
    </defs>
    <g transform="translate(0 10)">
        <rect x="0" y="-2.5" width="283.5" height="5" fill="#d8d8d8" rx="2.5" ry="2.5" />
    </g>
    <g transform="translate(144.5, 5)" dataentity="PF22693.1">
        <path d="m5,0h67.0h5v10h-5h-67.0h-5v-10h5z" fill="#e3712b" mask="url(#PF22693.1_0)" />
        <text x="38.5" y="8" text-anchor="middle" font-size="7.5" fill="white" opacity="1" data-maxwidth="61" font-family="Monospace">MACPF_1</text>
    </g>
    <g transform="translate(146.5, 5)" dataentity="PF01823.24">
        <path d="m5,0h58.0h5v10h-5h-58.0h-5v-10h5z" fill="#83daac" mask="url(#PF01823.24_1)" />
        <text x="34.0" y="8" text-anchor="middle" font-size="7.5" fill="white" opacity="1" data-maxwidth="61" font-family="Monospace">MACPF</text>
    </g>
</svg>