<svg width="79.5" height="20" viewBox="0 0 79.5 20" style="width: 159.0px; height: 40px" xmlns="http://www.w3.org/2000/svg">
    <defs>
        <mask id="PF22693.1_0" width="61.0" height="10" fill="#fff">
            <rect x="0" y="0" width="4.0" height="10" opacity="0.6" />
            <rect x="4.0" y="0" width="57.0" height="10" opacity="1" />
            <rect x="61.0" y="0" width="0.0" height="10" opacity="0.6" />
        </mask>
        <mask id="PF01823.24_0" width="68.5" height="10" fill="#fff">
            <rect x="0" y="0" width="11.5" height="10" opacity="0.6" />
            <rect x="11.5" y="0" width="51.5" height="10" opacity="1" />
            <rect x="63.0" y="0" width="5.5" height="10" opacity="0.6" />
        </mask>
    </defs>
    <g transform="translate(0 10)">
        <rect x="0" y="-2.5" width="77.5" height="5" fill="#d8d8d8" rx="2.5" ry="2.5" />
    </g>
    <g transform="translate(16.5, 5)" dataentity="PF22693.1">
        <path d="m5,0h51.0h5v10h-5h-51.0h-5v-10h5z" fill="#e3712b" mask="url(#PF22693.1_0)" />
        <text x="30.5" y="8" text-anchor="middle" font-size="7.5" fill="white" opacity="1" data-maxwidth="61" font-family="Monospace">MACPF_1</text>
    </g>
    <g transform="translate(9.0, 5)" dataentity="PF01823.24">
        <path d="m5,0h58.5h5v10h-5h-58.5h-5v-10h5z" fill="#83daac" mask="url(#PF01823.24_0)" />
        <text x="34.25" y="8" text-anchor="middle" font-size="7.5" fill="white" opacity="1" data-maxwidth="61" font-family="Monospace">MACPF</text>
    </g>
</svg>