<svg width="221.5" height="20" viewBox="0 0 221.5 20" style="width: 443.0px; height: 40px" xmlns="http://www.w3.org/2000/svg">
    <defs>
        <mask id="PF22693.1_0" width="84.5" height="10" fill="#fff">
            <rect x="0" y="0" width="4.0" height="10" opacity="0.6" />
            <rect x="4.0" y="0" width="74.0" height="10" opacity="1" />
            <rect x="78.0" y="0" width="6.5" height="10" opacity="0.6" />
        </mask>
        <mask id="PF01419.22_0" width="61.0" height="10" fill="#fff">
            <rect x="0" y="0" width="5.0" height="10" opacity="0.6" />
            <rect x="5.0" y="0" width="50.5" height="10" opacity="1" />
            <rect x="55.5" y="0" width="5.5" height="10" opacity="0.6" />
        </mask>
    </defs>
    <g transform="translate(0 10)">
        <rect x="0" y="-2.5" width="219.5" height="5" fill="#d8d8d8" rx="2.5" ry="2.5" />
    </g>
    <g transform="translate(27.5, 5)" dataentity="PF22693.1">
        <path d="m5,0h74.5h5v10h-5h-74.5h-5v-10h5z" fill="#e3712b" mask="url(#PF22693.1_0)" />
        <text x="42.25" y="8" text-anchor="middle" font-size="7.5" fill="white" opacity="1" data-maxwidth="61" font-family="Monospace">MACPF_1</text>
    </g>
    <g transform="translate(155.5, 5)" dataentity="PF01419.22">
        <path d="m5,0h51.0h5v10h-5h-51.0h-5v-10h5z" fill="#3a01a2" mask="url(#PF01419.22_0)" />
        <text x="30.5" y="8" text-anchor="middle" font-size="7.5" fill="white" opacity="1" data-maxwidth="61" font-family="Monospace">Jacalin</text>
    </g>
</svg>