<svg width="415.5" height="20" viewBox="0 0 415.5 20" style="width: 831.0px; height: 40px" xmlns="http://www.w3.org/2000/svg">
    <defs>
        <mask id="PF01823.24_0" width="111.0" height="10" fill="#fff">
            <rect x="0" y="0" width="6.5" height="10" opacity="0.6" />
            <rect x="6.5" y="0" width="73.0" height="10" opacity="1" />
            <rect x="79.5" y="0" width="31.5" height="10" opacity="0.6" />
        </mask>
        <mask id="PF01926.29_1" width="43.0" height="10" fill="#fff">
            <rect x="0" y="0" width="0.5" height="10" opacity="0.6" />
            <rect x="0.5" y="0" width="33.0" height="10" opacity="1" />
            <rect x="33.5" y="0" width="9.5" height="10" opacity="0.6" />
        </mask>
    </defs>
    <g transform="translate(0 10)">
        <rect x="0" y="-2.5" width="413.5" height="5" fill="#d8d8d8" rx="2.5" ry="2.5" />
    </g>
    <g transform="translate(279.5, 5)" dataentity="PF01823.24">
        <path d="m5,0h101.0h5v10h-5h-101.0h-5v-10h5z" fill="#83daac" mask="url(#PF01823.24_0)" />
        <text x="55.5" y="8" text-anchor="middle" font-size="7.5" fill="white" opacity="1" data-maxwidth="61" font-family="Monospace">MACPF</text>
    </g>
    <g transform="translate(112.5, 5)" dataentity="PF01926.29">
        <path d="m5,0h33.0h5v10h-5h-33.0h-5v-10h5z" fill="#357bdb" mask="url(#PF01926.29_1)" />
        <text x="21.5" y="8" text-anchor="middle" font-size="7.5" fill="white" opacity="1" data-maxwidth="61" font-family="Monospace">MMR_HSR1</text>
    </g>
</svg>