<svg width="124.0" height="20" viewBox="0 0 124.0 20" style="width: 248.0px; height: 40px" xmlns="http://www.w3.org/2000/svg">
    <defs>
        <mask id="PF12464.13_0" width="26.0" height="10" fill="#fff">
            <rect x="0" y="0" width="0.0" height="10" opacity="0.6" />
            <rect x="0.0" y="0" width="25.0" height="10" opacity="1" />
            <rect x="25.0" y="0" width="1.0" height="10" opacity="0.6" />
        </mask>
        <mask id="PF14602.12_2" width="13.0" height="10" fill="#fff">
            <rect x="0" y="0" width="0.0" height="10" opacity="0.6" />
            <rect x="0.0" y="0" width="13.0" height="10" opacity="1" />
            <rect x="13.0" y="0" width="0.0" height="10" opacity="0.6" />
        </mask>
    </defs>
    <g transform="translate(0 10)">
        <rect x="0" y="-2.5" width="122.0" height="5" fill="#d8d8d8" rx="2.5" ry="2.5" />
    </g>
    <g transform="translate(10.5, 5)" dataentity="PF12464.13">
        <path d="m5,0h16.0h5v10h-5h-16.0h-5v-10h5z" fill="#c03cfe" mask="url(#PF12464.13_0)" />
        <text x="13.0" y="8" text-anchor="middle" font-size="7.5" fill="white" opacity="1" data-maxwidth="61" font-family="Monospace">Mac</text>
    </g>
    <g transform="translate(87.0, 5)" dataentity="PF14602.12">
        <path d="m5,0h3.0h5v10h-5h-3.0h-5v-10h5z" fill="#15e61f" mask="url(#PF14602.12_2)" />
        <text x="6.5" y="8" text-anchor="middle" font-size="7.5" fill="white" opacity="1" data-maxwidth="61" font-family="Monospace">Hexapep_2</text>
    </g>
</svg>