<svg width="464.0" height="20" viewBox="0 0 464.0 20" style="width: 928.0px; height: 40px" xmlns="http://www.w3.org/2000/svg">
    <defs>
        <mask id="PF01823.24_0" width="82.5" height="10" fill="#fff">
            <rect x="0" y="0" width="11.5" height="10" opacity="0.6" />
            <rect x="11.5" y="0" width="45.0" height="10" opacity="1" />
            <rect x="56.5" y="0" width="26.0" height="10" opacity="0.6" />
        </mask>
        <mask id="PF04548.22_0" width="86.5" height="10" fill="#fff">
            <rect x="0" y="0" width="1.0" height="10" opacity="0.6" />
            <rect x="1.0" y="0" width="61.5" height="10" opacity="1" />
            <rect x="62.5" y="0" width="24.0" height="10" opacity="0.6" />
        </mask>
        <mask id="PF01926.29_0" width="64.5" height="10" fill="#fff">
            <rect x="0" y="0" width="0.5" height="10" opacity="0.6" />
            <rect x="0.5" y="0" width="52.5" height="10" opacity="1" />
            <rect x="53.0" y="0" width="11.5" height="10" opacity="0.6" />
        </mask>
    </defs>
    <g transform="translate(0 10)">
        <rect x="0" y="-2.5" width="462.0" height="5" fill="#d8d8d8" rx="2.5" ry="2.5" />
    </g>
    <g transform="translate(321.5, 5)" dataentity="PF01823.24">
        <path d="m5,0h72.5h5v10h-5h-72.5h-5v-10h5z" fill="#83daac" mask="url(#PF01823.24_0)" />
        <text x="41.25" y="8" text-anchor="middle" font-size="7.5" fill="white" opacity="1" data-maxwidth="61" font-family="Monospace">MACPF</text>
    </g>
    <g transform="translate(145.5, 5)" dataentity="PF04548.22">
        <path d="m5,0h76.5h5v10h-5h-76.5h-5v-10h5z" fill="#5ec2d3" mask="url(#PF04548.22_0)" />
        <text x="43.25" y="8" text-anchor="middle" font-size="7.5" fill="white" opacity="1" data-maxwidth="61" font-family="Monospace">AIG1</text>
    </g>
    <g transform="translate(146.0, 5)" dataentity="PF01926.29">
        <path d="m5,0h54.5h5v10h-5h-54.5h-5v-10h5z" fill="#357bdb" mask="url(#PF01926.29_0)" />
        <text x="32.25" y="8" text-anchor="middle" font-size="7.5" fill="white" opacity="1" data-maxwidth="61" font-family="Monospace">MMR_HSR1</text>
    </g>
</svg>