<svg width="369.5" height="20" viewBox="0 0 369.5 20" style="width: 739.0px; height: 40px" xmlns="http://www.w3.org/2000/svg">
    <defs>
        <mask id="PF04548.22_0" width="40.5" height="10" fill="#fff">
            <rect x="0" y="0" width="0.5" height="10" opacity="0.6" />
            <rect x="0.5" y="0" width="34.0" height="10" opacity="1" />
            <rect x="34.5" y="0" width="6.0" height="10" opacity="0.6" />
        </mask>
        <mask id="PF01926.29_0" width="54.0" height="10" fill="#fff">
            <rect x="0" y="0" width="0.5" height="10" opacity="0.6" />
            <rect x="0.5" y="0" width="40.5" height="10" opacity="1" />
            <rect x="41.0" y="0" width="13.0" height="10" opacity="0.6" />
        </mask>
        <mask id="PF01823.24_0" width="66.0" height="10" fill="#fff">
            <rect x="0" y="0" width="7.0" height="10" opacity="0.6" />
            <rect x="7.0" y="0" width="27.5" height="10" opacity="1" />
            <rect x="34.5" y="0" width="31.5" height="10" opacity="0.6" />
        </mask>
    </defs>
    <g transform="translate(0 10)">
        <rect x="0" y="-2.5" width="367.5" height="5" fill="#d8d8d8" rx="2.5" ry="2.5" />
    </g>
    <g transform="translate(25.0, 5)" dataentity="PF04548.22">
        <path d="m5,0h30.5h5v10h-5h-30.5h-5v-10h5z" fill="#5ec2d3" mask="url(#PF04548.22_0)" />
        <text x="20.25" y="8" text-anchor="middle" font-size="7.5" fill="white" opacity="1" data-maxwidth="61" font-family="Monospace">AIG1</text>
    </g>
    <g transform="translate(25.5, 5)" dataentity="PF01926.29">
        <path d="m5,0h44.0h5v10h-5h-44.0h-5v-10h5z" fill="#357bdb" mask="url(#PF01926.29_0)" />
        <text x="27.0" y="8" text-anchor="middle" font-size="7.5" fill="white" opacity="1" data-maxwidth="61" font-family="Monospace">MMR_HSR1</text>
    </g>
    <g transform="translate(231.0, 5)" dataentity="PF01823.24">
        <path d="m5,0h56.0h5v10h-5h-56.0h-5v-10h5z" fill="#83daac" mask="url(#PF01823.24_0)" />
        <text x="33.0" y="8" text-anchor="middle" font-size="7.5" fill="white" opacity="1" data-maxwidth="61" font-family="Monospace">MACPF</text>
    </g>
</svg>