<svg width="264.5" height="20" viewBox="0 0 264.5 20" style="width: 529.0px; height: 40px" xmlns="http://www.w3.org/2000/svg">
    <defs>
        <mask id="PF18885.6_1" width="69.0" height="10" fill="#fff">
            <rect x="0" y="0" width="1.0" height="10" opacity="0.6" />
            <rect x="1.0" y="0" width="67.5" height="10" opacity="1" />
            <rect x="68.5" y="0" width="0.5" height="10" opacity="0.6" />
        </mask>
        <mask id="PF22693.1_0" width="129.0" height="10" fill="#fff">
            <rect x="0" y="0" width="18.5" height="10" opacity="0.6" />
            <rect x="18.5" y="0" width="110.5" height="10" opacity="1" />
            <rect x="129.0" y="0" width="0.0" height="10" opacity="0.6" />
        </mask>
        <mask id="PF01823.24_1" width="89.5" height="10" fill="#fff">
            <rect x="0" y="0" width="4.5" height="10" opacity="0.6" />
            <rect x="4.5" y="0" width="80.0" height="10" opacity="1" />
            <rect x="84.5" y="0" width="5.0" height="10" opacity="0.6" />
        </mask>
    </defs>
    <g transform="translate(0 10)">
        <rect x="0" y="-2.5" width="262.5" height="5" fill="#d8d8d8" rx="2.5" ry="2.5" />
    </g>
    <g transform="translate(192.0, 5)" dataentity="PF18885.6">
        <path d="m5,0h59.0h5v10h-5h-59.0h-5v-10h5z" fill="#c453ce" mask="url(#PF18885.6_1)" />
        <text x="34.5" y="8" text-anchor="middle" font-size="7.5" fill="white" opacity="1" data-maxwidth="61" font-family="Monospace">DUF5648</text>
    </g>
    <g transform="translate(56.0, 5)" dataentity="PF22693.1">
        <path d="m5,0h119.0h5v10h-5h-119.0h-5v-10h5z" fill="#e3712b" mask="url(#PF22693.1_0)" />
        <text x="64.5" y="8" text-anchor="middle" font-size="7.5" fill="white" opacity="1" data-maxwidth="61" font-family="Monospace">MACPF_1</text>
    </g>
    <g transform="translate(87.0, 5)" dataentity="PF01823.24">
        <path d="m5,0h79.5h5v10h-5h-79.5h-5v-10h5z" fill="#83daac" mask="url(#PF01823.24_1)" />
        <text x="44.75" y="8" text-anchor="middle" font-size="7.5" fill="white" opacity="1" data-maxwidth="61" font-family="Monospace">MACPF</text>
    </g>
</svg>