<svg width="289.0" height="20" viewBox="0 0 289.0 20" style="width: 578.0px; height: 40px" xmlns="http://www.w3.org/2000/svg">
    <defs>
        <mask id="PF18885.6_0" width="54.5" height="10" fill="#fff">
            <rect x="0" y="0" width="2.5" height="10" opacity="0.6" />
            <rect x="2.5" y="0" width="51.5" height="10" opacity="1" />
            <rect x="54.0" y="0" width="0.5" height="10" opacity="0.6" />
        </mask>
        <mask id="PF18885.6_1" width="41.0" height="10" fill="#fff">
            <rect x="0" y="0" width="1.0" height="10" opacity="0.6" />
            <rect x="1.0" y="0" width="39.5" height="10" opacity="1" />
            <rect x="40.5" y="0" width="0.5" height="10" opacity="0.6" />
        </mask>
        <mask id="PF22693.1_0" width="120.5" height="10" fill="#fff">
            <rect x="0" y="0" width="8.0" height="10" opacity="0.6" />
            <rect x="8.0" y="0" width="112.5" height="10" opacity="1" />
            <rect x="120.5" y="0" width="0.0" height="10" opacity="0.6" />
        </mask>
        <mask id="PF01823.24_1" width="100.5" height="10" fill="#fff">
            <rect x="0" y="0" width="5.0" height="10" opacity="0.6" />
            <rect x="5.0" y="0" width="90.0" height="10" opacity="1" />
            <rect x="95.0" y="0" width="5.5" height="10" opacity="0.6" />
        </mask>
    </defs>
    <g transform="translate(0 10)">
        <rect x="0" y="-2.5" width="287.0" height="5" fill="#d8d8d8" rx="2.5" ry="2.5" />
    </g>
    <g transform="translate(207.0, 5)" dataentity="PF18885.6">
        <path d="m5,0h44.5h5v10h-5h-44.5h-5v-10h5z" fill="#c453ce" mask="url(#PF18885.6_0)" />
        <text x="27.25" y="8" text-anchor="middle" font-size="7.5" fill="white" opacity="1" data-maxwidth="61" font-family="Monospace">DUF5648</text>
    </g>
    <g transform="translate(245.5, 5)" dataentity="PF18885.6">
        <path d="m5,0h31.0h5v10h-5h-31.0h-5v-10h5z" fill="#c453ce" mask="url(#PF18885.6_1)" />
        <text x="20.5" y="8" text-anchor="middle" font-size="7.5" fill="white" opacity="1" data-maxwidth="61" font-family="Monospace">DUF5648</text>
    </g>
    <g transform="translate(90.5, 5)" dataentity="PF22693.1">
        <path d="m5,0h110.5h5v10h-5h-110.5h-5v-10h5z" fill="#e3712b" mask="url(#PF22693.1_0)" />
        <text x="60.25" y="8" text-anchor="middle" font-size="7.5" fill="white" opacity="1" data-maxwidth="61" font-family="Monospace">MACPF_1</text>
    </g>
    <g transform="translate(114.0, 5)" dataentity="PF01823.24">
        <path d="m5,0h90.5h5v10h-5h-90.5h-5v-10h5z" fill="#83daac" mask="url(#PF01823.24_1)" />
        <text x="50.25" y="8" text-anchor="middle" font-size="7.5" fill="white" opacity="1" data-maxwidth="61" font-family="Monospace">MACPF</text>
    </g>
</svg>