<svg width="445.0" height="20" viewBox="0 0 445.0 20" style="width: 890.0px; height: 40px" xmlns="http://www.w3.org/2000/svg">
    <defs>
        <mask id="PF01823.24_0" width="100.0" height="10" fill="#fff">
            <rect x="0" y="0" width="1.5" height="10" opacity="0.6" />
            <rect x="1.5" y="0" width="50.0" height="10" opacity="1" />
            <rect x="51.5" y="0" width="48.5" height="10" opacity="0.6" />
        </mask>
        <mask id="PF04548.22_0" width="83.5" height="10" fill="#fff">
            <rect x="0" y="0" width="1.0" height="10" opacity="0.6" />
            <rect x="1.0" y="0" width="63.5" height="10" opacity="1" />
            <rect x="64.5" y="0" width="19.0" height="10" opacity="0.6" />
        </mask>
        <mask id="PF01926.29_0" width="74.5" height="10" fill="#fff">
            <rect x="0" y="0" width="0.5" height="10" opacity="0.6" />
            <rect x="0.5" y="0" width="51.5" height="10" opacity="1" />
            <rect x="52.0" y="0" width="22.5" height="10" opacity="0.6" />
        </mask>
    </defs>
    <g transform="translate(0 10)">
        <rect x="0" y="-2.5" width="443.0" height="5" fill="#d8d8d8" rx="2.5" ry="2.5" />
    </g>
    <g transform="translate(307.5, 5)" dataentity="PF01823.24">
        <path d="m5,0h90.0h5v10h-5h-90.0h-5v-10h5z" fill="#83daac" mask="url(#PF01823.24_0)" />
        <text x="50.0" y="8" text-anchor="middle" font-size="7.5" fill="white" opacity="1" data-maxwidth="61" font-family="Monospace">MACPF</text>
    </g>
    <g transform="translate(125.0, 5)" dataentity="PF04548.22">
        <path d="m5,0h73.5h5v10h-5h-73.5h-5v-10h5z" fill="#5ec2d3" mask="url(#PF04548.22_0)" />
        <text x="41.75" y="8" text-anchor="middle" font-size="7.5" fill="white" opacity="1" data-maxwidth="61" font-family="Monospace">AIG1</text>
    </g>
    <g transform="translate(125.5, 5)" dataentity="PF01926.29">
        <path d="m5,0h64.5h5v10h-5h-64.5h-5v-10h5z" fill="#357bdb" mask="url(#PF01926.29_0)" />
        <text x="37.25" y="8" text-anchor="middle" font-size="7.5" fill="white" opacity="1" data-maxwidth="61" font-family="Monospace">MMR_HSR1</text>
    </g>
</svg>