<svg width="75.5" height="20" viewBox="0 0 75.5 20" style="width: 151.0px; height: 40px" xmlns="http://www.w3.org/2000/svg">
    <defs>
        <mask id="PF00025.27_0" width="71.0" height="10" fill="#fff">
            <rect x="0" y="0" width="1.5" height="10" opacity="0.6" />
            <rect x="1.5" y="0" width="64.0" height="10" opacity="1" />
            <rect x="65.5" y="0" width="5.5" height="10" opacity="0.6" />
        </mask>
        <mask id="PF00071.28_0" width="62.5" height="10" fill="#fff">
            <rect x="0" y="0" width="0.5" height="10" opacity="0.6" />
            <rect x="0.5" y="0" width="57.0" height="10" opacity="1" />
            <rect x="57.5" y="0" width="5.0" height="10" opacity="0.6" />
        </mask>
        <mask id="PF08477.19_0" width="55.5" height="10" fill="#fff">
            <rect x="0" y="0" width="0.5" height="10" opacity="0.6" />
            <rect x="0.5" y="0" width="55.0" height="10" opacity="1" />
            <rect x="55.5" y="0" width="0.0" height="10" opacity="0.6" />
        </mask>
        <mask id="PF09439.16_0" width="64.5" height="10" fill="#fff">
            <rect x="0" y="0" width="0.5" height="10" opacity="0.6" />
            <rect x="0.5" y="0" width="58.0" height="10" opacity="1" />
            <rect x="58.5" y="0" width="6.0" height="10" opacity="0.6" />
        </mask>
        <mask id="PF01926.29_0" width="54.5" height="10" fill="#fff">
            <rect x="0" y="0" width="0.0" height="10" opacity="0.6" />
            <rect x="0.0" y="0" width="54.0" height="10" opacity="1" />
            <rect x="54.0" y="0" width="0.5" height="10" opacity="0.6" />
        </mask>
        <mask id="PF04670.18_0" width="62.0" height="10" fill="#fff">
            <rect x="0" y="0" width="1.0" height="10" opacity="0.6" />
            <rect x="1.0" y="0" width="56.0" height="10" opacity="1" />
            <rect x="57.0" y="0" width="5.0" height="10" opacity="0.6" />
        </mask>
        <mask id="PF02258.21_0" width="27.5" height="10" fill="#fff">
            <rect x="0" y="0" width="2.5" height="10" opacity="0.6" />
            <rect x="2.5" y="0" width="23.5" height="10" opacity="1" />
            <rect x="26.0" y="0" width="1.5" height="10" opacity="0.6" />
        </mask>
    </defs>
    <g transform="translate(0 10)">
        <rect x="0" y="-2.5" width="73.5" height="5" fill="#d8d8d8" rx="2.5" ry="2.5" />
    </g>
    <g transform="translate(2.0, 5)" dataentity="PF00025.27">
        <path d="m5,0h61.0h5v10h-5h-61.0h-5v-10h5z" fill="#73f44b" mask="url(#PF00025.27_0)" />
        <text x="35.5" y="8" text-anchor="middle" font-size="7.5" fill="white" opacity="1" data-maxwidth="61" font-family="Monospace">Arf</text>
    </g>
    <g transform="translate(10.5, 5)" dataentity="PF00071.28">
        <path d="m5,0h52.5h5v10h-5h-52.5h-5v-10h5z" fill="#39658f" mask="url(#PF00071.28_0)" />
        <text x="31.25" y="8" text-anchor="middle" font-size="7.5" fill="white" opacity="1" data-maxwidth="61" font-family="Monospace">Ras</text>
    </g>
    <g transform="translate(10.5, 5)" dataentity="PF08477.19">
        <path d="m5,0h45.5h5v10h-5h-45.5h-5v-10h5z" fill="#83398a" mask="url(#PF08477.19_0)" />
        <text x="27.75" y="8" text-anchor="middle" font-size="7.5" fill="white" opacity="1" data-maxwidth="61" font-family="Monospace">Roc</text>
    </g>
    <g transform="translate(8.5, 5)" dataentity="PF09439.16">
        <path d="m5,0h54.5h5v10h-5h-54.5h-5v-10h5z" fill="#84bac9" mask="url(#PF09439.16_0)" />
        <text x="32.25" y="8" text-anchor="middle" font-size="7.5" fill="white" opacity="1" data-maxwidth="61" font-family="Monospace">SRPRB</text>
    </g>
    <g transform="translate(10.5, 5)" dataentity="PF01926.29">
        <path d="m5,0h44.5h5v10h-5h-44.5h-5v-10h5z" fill="#357bdb" mask="url(#PF01926.29_0)" />
        <text x="27.25" y="8" text-anchor="middle" font-size="7.5" fill="white" opacity="1" data-maxwidth="61" font-family="Monospace">MMR_HSR1</text>
    </g>
    <g transform="translate(10.5, 5)" dataentity="PF04670.18">
        <path d="m5,0h52.0h5v10h-5h-52.0h-5v-10h5z" fill="#b0650a" mask="url(#PF04670.18_0)" />
        <text x="31.0" y="8" text-anchor="middle" font-size="7.5" fill="white" opacity="1" data-maxwidth="61" font-family="Monospace">Gtr1_RagA</text>
    </g>
    <g transform="translate(39.5, 5)" dataentity="PF02258.21">
        <path d="m5,0h17.5h5v10h-5h-17.5h-5v-10h5z" fill="#c453ce" mask="url(#PF02258.21_0)" />
        <text x="13.75" y="8" text-anchor="middle" font-size="7.5" fill="white" opacity="1" data-maxwidth="61" font-family="Monospace">SLT_beta</text>
    </g>
</svg>