<svg width="415.0" height="20" viewBox="0 0 415.0 20" style="width: 830.0px; height: 40px" xmlns="http://www.w3.org/2000/svg">
    <defs>
        <mask id="PF01823.24_0" width="94.0" height="10" fill="#fff">
            <rect x="0" y="0" width="13.5" height="10" opacity="0.6" />
            <rect x="13.5" y="0" width="45.5" height="10" opacity="1" />
            <rect x="59.0" y="0" width="35.0" height="10" opacity="0.6" />
        </mask>
        <mask id="PF01926.29_0" width="58.5" height="10" fill="#fff">
            <rect x="0" y="0" width="0.5" height="10" opacity="0.6" />
            <rect x="0.5" y="0" width="41.0" height="10" opacity="1" />
            <rect x="41.5" y="0" width="17.0" height="10" opacity="0.6" />
        </mask>
    </defs>
    <g transform="translate(0 10)">
        <rect x="0" y="-2.5" width="413.0" height="5" fill="#d8d8d8" rx="2.5" ry="2.5" />
    </g>
    <g transform="translate(290.0, 5)" dataentity="PF01823.24">
        <path d="m5,0h84.0h5v10h-5h-84.0h-5v-10h5z" fill="#83daac" mask="url(#PF01823.24_0)" />
        <text x="47.0" y="8" text-anchor="middle" font-size="7.5" fill="white" opacity="1" data-maxwidth="61" font-family="Monospace">MACPF</text>
    </g>
    <g transform="translate(103.0, 5)" dataentity="PF01926.29">
        <path d="m5,0h48.5h5v10h-5h-48.5h-5v-10h5z" fill="#357bdb" mask="url(#PF01926.29_0)" />
        <text x="29.25" y="8" text-anchor="middle" font-size="7.5" fill="white" opacity="1" data-maxwidth="61" font-family="Monospace">MMR_HSR1</text>
    </g>
</svg>