<svg width="182.5" height="20" viewBox="0 0 182.5 20" style="width: 365.0px; height: 40px" xmlns="http://www.w3.org/2000/svg">
    <defs>
        <mask id="PF22693.1_0" width="133.0" height="10" fill="#fff">
            <rect x="0" y="0" width="0.0" height="10" opacity="0.6" />
            <rect x="0.0" y="0" width="131.0" height="10" opacity="1" />
            <rect x="131.0" y="0" width="2.0" height="10" opacity="0.6" />
        </mask>
        <mask id="PF01823.24_0" width="101.0" height="10" fill="#fff">
            <rect x="0" y="0" width="15.5" height="10" opacity="0.6" />
            <rect x="15.5" y="0" width="83.5" height="10" opacity="1" />
            <rect x="99.0" y="0" width="2.0" height="10" opacity="0.6" />
        </mask>
    </defs>
    <g transform="translate(0 10)">
        <rect x="0" y="-2.5" width="180.5" height="5" fill="#d8d8d8" rx="2.5" ry="2.5" />
    </g>
    <g transform="translate(26.0, 5)" dataentity="PF22693.1">
        <path d="m5,0h123.0h5v10h-5h-123.0h-5v-10h5z" fill="#e3712b" mask="url(#PF22693.1_0)" />
        <text x="66.5" y="8" text-anchor="middle" font-size="7.5" fill="white" opacity="1" data-maxwidth="61" font-family="Monospace">MACPF_1</text>
    </g>
    <g transform="translate(60.5, 5)" dataentity="PF01823.24">
        <path d="m5,0h91.0h5v10h-5h-91.0h-5v-10h5z" fill="#83daac" mask="url(#PF01823.24_0)" />
        <text x="50.5" y="8" text-anchor="middle" font-size="7.5" fill="white" opacity="1" data-maxwidth="61" font-family="Monospace">MACPF</text>
    </g>
</svg>