<svg width="375.0" height="20" viewBox="0 0 375.0 20" style="width: 750.0px; height: 40px" xmlns="http://www.w3.org/2000/svg">
    <defs>
        <mask id="PF02854.25_0" width="117.0" height="10" fill="#fff">
            <rect x="0" y="0" width="0.5" height="10" opacity="0.6" />
            <rect x="0.5" y="0" width="115.5" height="10" opacity="1" />
            <rect x="116.0" y="0" width="1.0" height="10" opacity="0.6" />
        </mask>
        <mask id="PF22693.1_0" width="122.5" height="10" fill="#fff">
            <rect x="0" y="0" width="1.0" height="10" opacity="0.6" />
            <rect x="1.0" y="0" width="121.5" height="10" opacity="1" />
            <rect x="122.5" y="0" width="0.0" height="10" opacity="0.6" />
        </mask>
    </defs>
    <g transform="translate(0 10)">
        <rect x="0" y="-2.5" width="373.0" height="5" fill="#d8d8d8" rx="2.5" ry="2.5" />
    </g>
    <g transform="translate(241.0, 5)" dataentity="PF02854.25">
        <path d="m5,0h107.0h5v10h-5h-107.0h-5v-10h5z" fill="#40e0e8" mask="url(#PF02854.25_0)" />
        <text x="58.5" y="8" text-anchor="middle" font-size="7.5" fill="white" opacity="1" data-maxwidth="61" font-family="Monospace">MIF4G</text>
    </g>
    <g transform="translate(52.0, 5)" dataentity="PF22693.1">
        <path d="m5,0h112.5h5v10h-5h-112.5h-5v-10h5z" fill="#e3712b" mask="url(#PF22693.1_0)" />
        <text x="61.25" y="8" text-anchor="middle" font-size="7.5" fill="white" opacity="1" data-maxwidth="61" font-family="Monospace">MACPF_1</text>
    </g>
</svg>