<svg width="300.0" height="20" viewBox="0 0 300.0 20" style="width: 600.0px; height: 40px" xmlns="http://www.w3.org/2000/svg">
    <defs>
        <mask id="PF22693.1_0" width="67.0" height="10" fill="#fff">
            <rect x="0" y="0" width="5.0" height="10" opacity="0.6" />
            <rect x="5.0" y="0" width="59.5" height="10" opacity="1" />
            <rect x="64.5" y="0" width="2.5" height="10" opacity="0.6" />
        </mask>
        <mask id="PF01823.24_0" width="89.5" height="10" fill="#fff">
            <rect x="0" y="0" width="23.0" height="10" opacity="0.6" />
            <rect x="23.0" y="0" width="60.5" height="10" opacity="1" />
            <rect x="83.5" y="0" width="6.0" height="10" opacity="0.6" />
        </mask>
    </defs>
    <g transform="translate(0 10)">
        <rect x="0" y="-2.5" width="298.0" height="5" fill="#d8d8d8" rx="2.5" ry="2.5" />
    </g>
    <g transform="translate(157.5, 5)" dataentity="PF22693.1">
        <path d="m5,0h57.0h5v10h-5h-57.0h-5v-10h5z" fill="#e3712b" mask="url(#PF22693.1_0)" />
        <text x="33.5" y="8" text-anchor="middle" font-size="7.5" fill="white" opacity="1" data-maxwidth="61" font-family="Monospace">MACPF_1</text>
    </g>
    <g transform="translate(130.0, 5)" dataentity="PF01823.24">
        <path d="m5,0h79.5h5v10h-5h-79.5h-5v-10h5z" fill="#83daac" mask="url(#PF01823.24_0)" />
        <text x="44.75" y="8" text-anchor="middle" font-size="7.5" fill="white" opacity="1" data-maxwidth="61" font-family="Monospace">MACPF</text>
    </g>
</svg>