<svg width="425.0" height="20" viewBox="0 0 425.0 20" style="width: 850.0px; height: 40px" xmlns="http://www.w3.org/2000/svg">
    <defs>
        <mask id="PF01823.24_0" width="60.0" height="10" fill="#fff">
            <rect x="0" y="0" width="8.5" height="10" opacity="0.6" />
            <rect x="8.5" y="0" width="41.5" height="10" opacity="1" />
            <rect x="50.0" y="0" width="10.0" height="10" opacity="0.6" />
        </mask>
        <mask id="PF04548.22_0" width="66.5" height="10" fill="#fff">
            <rect x="0" y="0" width="1.0" height="10" opacity="0.6" />
            <rect x="1.0" y="0" width="59.0" height="10" opacity="1" />
            <rect x="60.0" y="0" width="6.5" height="10" opacity="0.6" />
        </mask>
        <mask id="PF01926.29_1" width="72.0" height="10" fill="#fff">
            <rect x="0" y="0" width="0.5" height="10" opacity="0.6" />
            <rect x="0.5" y="0" width="46.5" height="10" opacity="1" />
            <rect x="47.0" y="0" width="25.0" height="10" opacity="0.6" />
        </mask>
    </defs>
    <g transform="translate(0 10)">
        <rect x="0" y="-2.5" width="423.0" height="5" fill="#d8d8d8" rx="2.5" ry="2.5" />
    </g>
    <g transform="translate(298.0, 5)" dataentity="PF01823.24">
        <path d="m5,0h50.0h5v10h-5h-50.0h-5v-10h5z" fill="#83daac" mask="url(#PF01823.24_0)" />
        <text x="30.0" y="8" text-anchor="middle" font-size="7.5" fill="white" opacity="1" data-maxwidth="61" font-family="Monospace">MACPF</text>
    </g>
    <g transform="translate(112.0, 5)" dataentity="PF04548.22">
        <path d="m5,0h56.5h5v10h-5h-56.5h-5v-10h5z" fill="#5ec2d3" mask="url(#PF04548.22_0)" />
        <text x="33.25" y="8" text-anchor="middle" font-size="7.5" fill="white" opacity="1" data-maxwidth="61" font-family="Monospace">AIG1</text>
    </g>
    <g transform="translate(112.5, 5)" dataentity="PF01926.29">
        <path d="m5,0h62.0h5v10h-5h-62.0h-5v-10h5z" fill="#357bdb" mask="url(#PF01926.29_1)" />
        <text x="36.0" y="8" text-anchor="middle" font-size="7.5" fill="white" opacity="1" data-maxwidth="61" font-family="Monospace">MMR_HSR1</text>
    </g>
</svg>