<svg width="586.5" height="20" viewBox="0 0 586.5 20" style="width: 1173.0px; height: 40px" xmlns="http://www.w3.org/2000/svg">
    <defs>
        <mask id="PF01823.24_0" width="52.5" height="10" fill="#fff">
            <rect x="0" y="0" width="16.5" height="10" opacity="0.6" />
            <rect x="16.5" y="0" width="26.0" height="10" opacity="1" />
            <rect x="42.5" y="0" width="10.0" height="10" opacity="0.6" />
        </mask>
        <mask id="PF01926.29_0" width="47.5" height="10" fill="#fff">
            <rect x="0" y="0" width="0.5" height="10" opacity="0.6" />
            <rect x="0.5" y="0" width="36.0" height="10" opacity="1" />
            <rect x="36.5" y="0" width="11.0" height="10" opacity="0.6" />
        </mask>
    </defs>
    <g transform="translate(0 10)">
        <rect x="0" y="-2.5" width="584.5" height="5" fill="#d8d8d8" rx="2.5" ry="2.5" />
    </g>
    <g transform="translate(448.5, 5)" dataentity="PF01823.24">
        <path d="m5,0h42.5h5v10h-5h-42.5h-5v-10h5z" fill="#83daac" mask="url(#PF01823.24_0)" />
        <text x="26.25" y="8" text-anchor="middle" font-size="7.5" fill="white" opacity="1" data-maxwidth="61" font-family="Monospace">MACPF</text>
    </g>
    <g transform="translate(259.0, 5)" dataentity="PF01926.29">
        <path d="m5,0h37.5h5v10h-5h-37.5h-5v-10h5z" fill="#357bdb" mask="url(#PF01926.29_0)" />
        <text x="23.75" y="8" text-anchor="middle" font-size="7.5" fill="white" opacity="1" data-maxwidth="61" font-family="Monospace">MMR_HSR1</text>
    </g>
</svg>