<svg width="451.5" height="20" viewBox="0 0 451.5 20" style="width: 903.0px; height: 40px" xmlns="http://www.w3.org/2000/svg">
    <defs>
        <mask id="PF01823.24_0" width="77.5" height="10" fill="#fff">
            <rect x="0" y="0" width="4.5" height="10" opacity="0.6" />
            <rect x="4.5" y="0" width="49.5" height="10" opacity="1" />
            <rect x="54.0" y="0" width="23.5" height="10" opacity="0.6" />
        </mask>
        <mask id="PF01926.29_0" width="56.5" height="10" fill="#fff">
            <rect x="0" y="0" width="0.5" height="10" opacity="0.6" />
            <rect x="0.5" y="0" width="32.5" height="10" opacity="1" />
            <rect x="33.0" y="0" width="23.5" height="10" opacity="0.6" />
        </mask>
        <mask id="PF00735.24_0" width="48.5" height="10" fill="#fff">
            <rect x="0" y="0" width="2.0" height="10" opacity="0.6" />
            <rect x="2.0" y="0" width="35.0" height="10" opacity="1" />
            <rect x="37.0" y="0" width="11.5" height="10" opacity="0.6" />
        </mask>
    </defs>
    <g transform="translate(0 10)">
        <rect x="0" y="-2.5" width="449.5" height="5" fill="#d8d8d8" rx="2.5" ry="2.5" />
    </g>
    <g transform="translate(305.0, 5)" dataentity="PF01823.24">
        <path d="m5,0h67.5h5v10h-5h-67.5h-5v-10h5z" fill="#83daac" mask="url(#PF01823.24_0)" />
        <text x="38.75" y="8" text-anchor="middle" font-size="7.5" fill="white" opacity="1" data-maxwidth="61" font-family="Monospace">MACPF</text>
    </g>
    <g transform="translate(113.5, 5)" dataentity="PF01926.29">
        <path d="m5,0h46.5h5v10h-5h-46.5h-5v-10h5z" fill="#357bdb" mask="url(#PF01926.29_0)" />
        <text x="28.25" y="8" text-anchor="middle" font-size="7.5" fill="white" opacity="1" data-maxwidth="61" font-family="Monospace">MMR_HSR1</text>
    </g>
    <g transform="translate(111.5, 5)" dataentity="PF00735.24">
        <path d="m5,0h38.5h5v10h-5h-38.5h-5v-10h5z" fill="#f2c89d" mask="url(#PF00735.24_0)" />
        <text x="24.25" y="8" text-anchor="middle" font-size="7.5" fill="white" opacity="1" data-maxwidth="61" font-family="Monospace">Septin</text>
    </g>
</svg>