<svg width="356.5" height="20" viewBox="0 0 356.5 20" style="width: 713.0px; height: 40px" xmlns="http://www.w3.org/2000/svg">
    <defs>
        <mask id="PF01823.24_1" width="113.5" height="10" fill="#fff">
            <rect x="0" y="0" width="18.5" height="10" opacity="0.6" />
            <rect x="18.5" y="0" width="58.5" height="10" opacity="1" />
            <rect x="77.0" y="0" width="36.5" height="10" opacity="0.6" />
        </mask>
        <mask id="PF00735.24_0" width="43.0" height="10" fill="#fff">
            <rect x="0" y="0" width="2.5" height="10" opacity="0.6" />
            <rect x="2.5" y="0" width="34.5" height="10" opacity="1" />
            <rect x="37.0" y="0" width="6.0" height="10" opacity="0.6" />
        </mask>
        <mask id="PF01926.29_0" width="59.5" height="10" fill="#fff">
            <rect x="0" y="0" width="0.5" height="10" opacity="0.6" />
            <rect x="0.5" y="0" width="31.0" height="10" opacity="1" />
            <rect x="31.5" y="0" width="28.0" height="10" opacity="0.6" />
        </mask>
    </defs>
    <g transform="translate(0 10)">
        <rect x="0" y="-2.5" width="354.5" height="5" fill="#d8d8d8" rx="2.5" ry="2.5" />
    </g>
    <g transform="translate(214.5, 5)" dataentity="PF01823.24">
        <path d="m5,0h103.5h5v10h-5h-103.5h-5v-10h5z" fill="#83daac" mask="url(#PF01823.24_1)" />
        <text x="56.75" y="8" text-anchor="middle" font-size="7.5" fill="white" opacity="1" data-maxwidth="61" font-family="Monospace">MACPF</text>
    </g>
    <g transform="translate(23.5, 5)" dataentity="PF00735.24">
        <path d="m5,0h33.0h5v10h-5h-33.0h-5v-10h5z" fill="#f2c89d" mask="url(#PF00735.24_0)" />
        <text x="21.5" y="8" text-anchor="middle" font-size="7.5" fill="white" opacity="1" data-maxwidth="61" font-family="Monospace">Septin</text>
    </g>
    <g transform="translate(25.5, 5)" dataentity="PF01926.29">
        <path d="m5,0h49.5h5v10h-5h-49.5h-5v-10h5z" fill="#357bdb" mask="url(#PF01926.29_0)" />
        <text x="29.75" y="8" text-anchor="middle" font-size="7.5" fill="white" opacity="1" data-maxwidth="61" font-family="Monospace">MMR_HSR1</text>
    </g>
</svg>