<svg width="352.0" height="20" viewBox="0 0 352.0 20" style="width: 704.0px; height: 40px" xmlns="http://www.w3.org/2000/svg">
    <defs>
        <mask id="PF01823.24_0" width="86.0" height="10" fill="#fff">
            <rect x="0" y="0" width="8.5" height="10" opacity="0.6" />
            <rect x="8.5" y="0" width="29.5" height="10" opacity="1" />
            <rect x="38.0" y="0" width="48.0" height="10" opacity="0.6" />
        </mask>
        <mask id="PF04548.22_0" width="60.0" height="10" fill="#fff">
            <rect x="0" y="0" width="0.5" height="10" opacity="0.6" />
            <rect x="0.5" y="0" width="41.0" height="10" opacity="1" />
            <rect x="41.5" y="0" width="18.5" height="10" opacity="0.6" />
        </mask>
        <mask id="PF01926.29_0" width="66.5" height="10" fill="#fff">
            <rect x="0" y="0" width="0.5" height="10" opacity="0.6" />
            <rect x="0.5" y="0" width="42.5" height="10" opacity="1" />
            <rect x="43.0" y="0" width="23.5" height="10" opacity="0.6" />
        </mask>
    </defs>
    <g transform="translate(0 10)">
        <rect x="0" y="-2.5" width="350.0" height="5" fill="#d8d8d8" rx="2.5" ry="2.5" />
    </g>
    <g transform="translate(237.5, 5)" dataentity="PF01823.24">
        <path d="m5,0h76.0h5v10h-5h-76.0h-5v-10h5z" fill="#83daac" mask="url(#PF01823.24_0)" />
        <text x="43.0" y="8" text-anchor="middle" font-size="7.5" fill="white" opacity="1" data-maxwidth="61" font-family="Monospace">MACPF</text>
    </g>
    <g transform="translate(66.5, 5)" dataentity="PF04548.22">
        <path d="m5,0h50.0h5v10h-5h-50.0h-5v-10h5z" fill="#5ec2d3" mask="url(#PF04548.22_0)" />
        <text x="30.0" y="8" text-anchor="middle" font-size="7.5" fill="white" opacity="1" data-maxwidth="61" font-family="Monospace">AIG1</text>
    </g>
    <g transform="translate(67.0, 5)" dataentity="PF01926.29">
        <path d="m5,0h56.5h5v10h-5h-56.5h-5v-10h5z" fill="#357bdb" mask="url(#PF01926.29_0)" />
        <text x="33.25" y="8" text-anchor="middle" font-size="7.5" fill="white" opacity="1" data-maxwidth="61" font-family="Monospace">MMR_HSR1</text>
    </g>
</svg>