<svg width="249.5" height="20" viewBox="0 0 249.5 20" style="width: 499.0px; height: 40px" xmlns="http://www.w3.org/2000/svg">
    <defs>
        <mask id="PF22693.1_0" width="86.0" height="10" fill="#fff">
            <rect x="0" y="0" width="19.5" height="10" opacity="0.6" />
            <rect x="19.5" y="0" width="58.5" height="10" opacity="1" />
            <rect x="78.0" y="0" width="8.0" height="10" opacity="0.6" />
        </mask>
        <mask id="PF01419.22_0" width="60.5" height="10" fill="#fff">
            <rect x="0" y="0" width="6.0" height="10" opacity="0.6" />
            <rect x="6.0" y="0" width="49.0" height="10" opacity="1" />
            <rect x="55.0" y="0" width="5.5" height="10" opacity="0.6" />
        </mask>
    </defs>
    <g transform="translate(0 10)">
        <rect x="0" y="-2.5" width="247.5" height="5" fill="#d8d8d8" rx="2.5" ry="2.5" />
    </g>
    <g transform="translate(27.5, 5)" dataentity="PF22693.1">
        <path d="m5,0h76.0h5v10h-5h-76.0h-5v-10h5z" fill="#e3712b" mask="url(#PF22693.1_0)" />
        <text x="43.0" y="8" text-anchor="middle" font-size="7.5" fill="white" opacity="1" data-maxwidth="61" font-family="Monospace">MACPF_1</text>
    </g>
    <g transform="translate(155.5, 5)" dataentity="PF01419.22">
        <path d="m5,0h50.5h5v10h-5h-50.5h-5v-10h5z" fill="#3a01a2" mask="url(#PF01419.22_0)" />
        <text x="30.25" y="8" text-anchor="middle" font-size="7.5" fill="white" opacity="1" data-maxwidth="61" font-family="Monospace">Jacalin</text>
    </g>
</svg>