<svg width="260.5" height="20" viewBox="0 0 260.5 20" style="width: 521.0px; height: 40px" xmlns="http://www.w3.org/2000/svg">
    <defs>
        <mask id="PF18684.6_0" width="86.0" height="10" fill="#fff">
            <rect x="0" y="0" width="0.0" height="10" opacity="0.6" />
            <rect x="0.0" y="0" width="85.5" height="10" opacity="1" />
            <rect x="85.5" y="0" width="0.5" height="10" opacity="0.6" />
        </mask>
        <mask id="PF22693.1_0" width="133.5" height="10" fill="#fff">
            <rect x="0" y="0" width="0.0" height="10" opacity="0.6" />
            <rect x="0.0" y="0" width="133.5" height="10" opacity="1" />
            <rect x="133.5" y="0" width="0.0" height="10" opacity="0.6" />
        </mask>
        <mask id="PF01823.24_1" width="103.5" height="10" fill="#fff">
            <rect x="0" y="0" width="23.0" height="10" opacity="0.6" />
            <rect x="23.0" y="0" width="75.0" height="10" opacity="1" />
            <rect x="98.0" y="0" width="5.5" height="10" opacity="0.6" />
        </mask>
    </defs>
    <g transform="translate(0 10)">
        <rect x="0" y="-2.5" width="258.5" height="5" fill="#d8d8d8" rx="2.5" ry="2.5" />
    </g>
    <g transform="translate(170.0, 5)" dataentity="PF18684.6">
        <path d="m5,0h76.0h5v10h-5h-76.0h-5v-10h5z" fill="#43e3be" mask="url(#PF18684.6_0)" />
        <text x="43.0" y="8" text-anchor="middle" font-size="7.5" fill="white" opacity="1" data-maxwidth="61" font-family="Monospace">PlyB_C</text>
    </g>
    <g transform="translate(33.5, 5)" dataentity="PF22693.1">
        <path d="m5,0h123.5h5v10h-5h-123.5h-5v-10h5z" fill="#e3712b" mask="url(#PF22693.1_0)" />
        <text x="66.75" y="8" text-anchor="middle" font-size="7.5" fill="white" opacity="1" data-maxwidth="61" font-family="Monospace">MACPF_1</text>
    </g>
    <g transform="translate(66.5, 5)" dataentity="PF01823.24">
        <path d="m5,0h93.5h5v10h-5h-93.5h-5v-10h5z" fill="#83daac" mask="url(#PF01823.24_1)" />
        <text x="51.75" y="8" text-anchor="middle" font-size="7.5" fill="white" opacity="1" data-maxwidth="61" font-family="Monospace">MACPF</text>
    </g>
</svg>