<svg width="363.0" height="20" viewBox="0 0 363.0 20" style="width: 726.0px; height: 40px" xmlns="http://www.w3.org/2000/svg">
    <defs>
        <mask id="PF01823.24_0" width="43.0" height="10" fill="#fff">
            <rect x="0" y="0" width="10.5" height="10" opacity="0.6" />
            <rect x="10.5" y="0" width="29.5" height="10" opacity="1" />
            <rect x="40.0" y="0" width="3.0" height="10" opacity="0.6" />
        </mask>
        <mask id="PF04548.22_0" width="68.0" height="10" fill="#fff">
            <rect x="0" y="0" width="1.0" height="10" opacity="0.6" />
            <rect x="1.0" y="0" width="61.0" height="10" opacity="1" />
            <rect x="62.0" y="0" width="6.0" height="10" opacity="0.6" />
        </mask>
        <mask id="PF01926.29_0" width="59.0" height="10" fill="#fff">
            <rect x="0" y="0" width="0.5" height="10" opacity="0.6" />
            <rect x="0.5" y="0" width="38.0" height="10" opacity="1" />
            <rect x="38.5" y="0" width="20.5" height="10" opacity="0.6" />
        </mask>
    </defs>
    <g transform="translate(0 10)">
        <rect x="0" y="-2.5" width="361.0" height="5" fill="#d8d8d8" rx="2.5" ry="2.5" />
    </g>
    <g transform="translate(253.5, 5)" dataentity="PF01823.24">
        <path d="m5,0h33.0h5v10h-5h-33.0h-5v-10h5z" fill="#83daac" mask="url(#PF01823.24_0)" />
        <text x="21.5" y="8" text-anchor="middle" font-size="7.5" fill="white" opacity="1" data-maxwidth="61" font-family="Monospace">MACPF</text>
    </g>
    <g transform="translate(95.0, 5)" dataentity="PF04548.22">
        <path d="m5,0h58.0h5v10h-5h-58.0h-5v-10h5z" fill="#5ec2d3" mask="url(#PF04548.22_0)" />
        <text x="34.0" y="8" text-anchor="middle" font-size="7.5" fill="white" opacity="1" data-maxwidth="61" font-family="Monospace">AIG1</text>
    </g>
    <g transform="translate(95.5, 5)" dataentity="PF01926.29">
        <path d="m5,0h49.0h5v10h-5h-49.0h-5v-10h5z" fill="#357bdb" mask="url(#PF01926.29_0)" />
        <text x="29.5" y="8" text-anchor="middle" font-size="7.5" fill="white" opacity="1" data-maxwidth="61" font-family="Monospace">MMR_HSR1</text>
    </g>
</svg>