<svg width="353.5" height="20" viewBox="0 0 353.5 20" style="width: 707.0px; height: 40px" xmlns="http://www.w3.org/2000/svg">
    <defs>
        <mask id="PF22693.1_0" width="111.0" height="10" fill="#fff">
            <rect x="0" y="0" width="45.0" height="10" opacity="0.6" />
            <rect x="45.0" y="0" width="63.5" height="10" opacity="1" />
            <rect x="108.5" y="0" width="2.5" height="10" opacity="0.6" />
        </mask>
        <mask id="PF01823.24_2" width="102.0" height="10" fill="#fff">
            <rect x="0" y="0" width="23.0" height="10" opacity="0.6" />
            <rect x="23.0" y="0" width="73.0" height="10" opacity="1" />
            <rect x="96.0" y="0" width="6.0" height="10" opacity="0.6" />
        </mask>
    </defs>
    <g transform="translate(0 10)">
        <rect x="0" y="-2.5" width="351.5" height="5" fill="#d8d8d8" rx="2.5" ry="2.5" />
    </g>
    <g transform="translate(127.0, 5)" dataentity="PF22693.1">
        <path d="m5,0h101.0h5v10h-5h-101.0h-5v-10h5z" fill="#e3712b" mask="url(#PF22693.1_0)" />
        <text x="55.5" y="8" text-anchor="middle" font-size="7.5" fill="white" opacity="1" data-maxwidth="61" font-family="Monospace">MACPF_1</text>
    </g>
    <g transform="translate(141.5, 5)" dataentity="PF01823.24">
        <path d="m5,0h92.0h5v10h-5h-92.0h-5v-10h5z" fill="#83daac" mask="url(#PF01823.24_2)" />
        <text x="51.0" y="8" text-anchor="middle" font-size="7.5" fill="white" opacity="1" data-maxwidth="61" font-family="Monospace">MACPF</text>
    </g>
</svg>