<svg width="328.0" height="20" viewBox="0 0 328.0 20" style="width: 656.0px; height: 40px" xmlns="http://www.w3.org/2000/svg">
    <defs>
        <mask id="PF01823.24_0" width="103.5" height="10" fill="#fff">
            <rect x="0" y="0" width="9.0" height="10" opacity="0.6" />
            <rect x="9.0" y="0" width="92.5" height="10" opacity="1" />
            <rect x="101.5" y="0" width="2.0" height="10" opacity="0.6" />
        </mask>
        <mask id="PF22784.1_1" width="63.0" height="10" fill="#fff">
            <rect x="0" y="0" width="3.0" height="10" opacity="0.6" />
            <rect x="3.0" y="0" width="49.5" height="10" opacity="1" />
            <rect x="52.5" y="0" width="10.5" height="10" opacity="0.6" />
        </mask>
        <mask id="PF22785.1_1" width="48.5" height="10" fill="#fff">
            <rect x="0" y="0" width="4.5" height="10" opacity="0.6" />
            <rect x="4.5" y="0" width="41.0" height="10" opacity="1" />
            <rect x="45.5" y="0" width="3.0" height="10" opacity="0.6" />
        </mask>
    </defs>
    <g transform="translate(0 10)">
        <rect x="0" y="-2.5" width="326.0" height="5" fill="#d8d8d8" rx="2.5" ry="2.5" />
    </g>
    <g transform="translate(51.0, 5)" dataentity="PF01823.24">
        <path d="m5,0h93.5h5v10h-5h-93.5h-5v-10h5z" fill="#83daac" mask="url(#PF01823.24_0)" />
        <text x="51.75" y="8" text-anchor="middle" font-size="7.5" fill="white" opacity="1" data-maxwidth="61" font-family="Monospace">MACPF</text>
    </g>
    <g transform="translate(256.5, 5)" dataentity="PF22784.1">
        <path d="m5,0h53.0h5v10h-5h-53.0h-5v-10h5z" fill="#49b7b1" mask="url(#PF22784.1_1)" />
        <text x="31.5" y="8" text-anchor="middle" font-size="7.5" fill="white" opacity="1" data-maxwidth="61" font-family="Monospace">PTP-SAK</text>
    </g>
    <g transform="translate(255.0, 5)" dataentity="PF22785.1">
        <path d="m5,0h38.5h5v10h-5h-38.5h-5v-10h5z" fill="#cf199b" mask="url(#PF22785.1_1)" />
        <text x="24.25" y="8" text-anchor="middle" font-size="7.5" fill="white" opacity="1" data-maxwidth="61" font-family="Monospace">Tc-R-P</text>
    </g>
</svg>