<svg width="311.0" height="20" viewBox="0 0 311.0 20" style="width: 622.0px; height: 40px" xmlns="http://www.w3.org/2000/svg">
    <defs>
        <mask id="PF18885.6_0" width="46.0" height="10" fill="#fff">
            <rect x="0" y="0" width="6.5" height="10" opacity="0.6" />
            <rect x="6.5" y="0" width="39.5" height="10" opacity="1" />
            <rect x="46.0" y="0" width="0.0" height="10" opacity="0.6" />
        </mask>
        <mask id="PF18885.6_1" width="67.5" height="10" fill="#fff">
            <rect x="0" y="0" width="0.0" height="10" opacity="0.6" />
            <rect x="0.0" y="0" width="67.0" height="10" opacity="1" />
            <rect x="67.0" y="0" width="0.5" height="10" opacity="0.6" />
        </mask>
        <mask id="PF22693.1_0" width="124.0" height="10" fill="#fff">
            <rect x="0" y="0" width="13.5" height="10" opacity="0.6" />
            <rect x="13.5" y="0" width="110.5" height="10" opacity="1" />
            <rect x="124.0" y="0" width="0.0" height="10" opacity="0.6" />
        </mask>
        <mask id="PF01823.24_0" width="91.5" height="10" fill="#fff">
            <rect x="0" y="0" width="4.5" height="10" opacity="0.6" />
            <rect x="4.5" y="0" width="80.0" height="10" opacity="1" />
            <rect x="84.5" y="0" width="7.0" height="10" opacity="0.6" />
        </mask>
    </defs>
    <g transform="translate(0 10)">
        <rect x="0" y="-2.5" width="309.0" height="5" fill="#d8d8d8" rx="2.5" ry="2.5" />
    </g>
    <g transform="translate(230.0, 5)" dataentity="PF18885.6">
        <path d="m5,0h36.0h5v10h-5h-36.0h-5v-10h5z" fill="#c453ce" mask="url(#PF18885.6_0)" />
        <text x="23.0" y="8" text-anchor="middle" font-size="7.5" fill="white" opacity="1" data-maxwidth="61" font-family="Monospace">DUF5648</text>
    </g>
    <g transform="translate(240.0, 5)" dataentity="PF18885.6">
        <path d="m5,0h57.5h5v10h-5h-57.5h-5v-10h5z" fill="#c453ce" mask="url(#PF18885.6_1)" />
        <text x="33.75" y="8" text-anchor="middle" font-size="7.5" fill="white" opacity="1" data-maxwidth="61" font-family="Monospace">DUF5648</text>
    </g>
    <g transform="translate(107.5, 5)" dataentity="PF22693.1">
        <path d="m5,0h114.0h5v10h-5h-114.0h-5v-10h5z" fill="#e3712b" mask="url(#PF22693.1_0)" />
        <text x="62.0" y="8" text-anchor="middle" font-size="7.5" fill="white" opacity="1" data-maxwidth="61" font-family="Monospace">MACPF_1</text>
    </g>
    <g transform="translate(133.5, 5)" dataentity="PF01823.24">
        <path d="m5,0h81.5h5v10h-5h-81.5h-5v-10h5z" fill="#83daac" mask="url(#PF01823.24_0)" />
        <text x="45.75" y="8" text-anchor="middle" font-size="7.5" fill="white" opacity="1" data-maxwidth="61" font-family="Monospace">MACPF</text>
    </g>
</svg>