<svg width="396.5" height="20" viewBox="0 0 396.5 20" style="width: 793.0px; height: 40px" xmlns="http://www.w3.org/2000/svg">
    <defs>
        <mask id="PF01823.24_0" width="70.0" height="10" fill="#fff">
            <rect x="0" y="0" width="12.5" height="10" opacity="0.6" />
            <rect x="12.5" y="0" width="41.0" height="10" opacity="1" />
            <rect x="53.5" y="0" width="16.5" height="10" opacity="0.6" />
        </mask>
        <mask id="PF04548.22_0" width="89.5" height="10" fill="#fff">
            <rect x="0" y="0" width="1.0" height="10" opacity="0.6" />
            <rect x="1.0" y="0" width="63.0" height="10" opacity="1" />
            <rect x="64.0" y="0" width="25.5" height="10" opacity="0.6" />
        </mask>
        <mask id="PF01926.29_0" width="65.0" height="10" fill="#fff">
            <rect x="0" y="0" width="1.0" height="10" opacity="0.6" />
            <rect x="1.0" y="0" width="44.5" height="10" opacity="1" />
            <rect x="45.5" y="0" width="19.5" height="10" opacity="0.6" />
        </mask>
    </defs>
    <g transform="translate(0 10)">
        <rect x="0" y="-2.5" width="394.5" height="5" fill="#d8d8d8" rx="2.5" ry="2.5" />
    </g>
    <g transform="translate(279.0, 5)" dataentity="PF01823.24">
        <path d="m5,0h60.0h5v10h-5h-60.0h-5v-10h5z" fill="#83daac" mask="url(#PF01823.24_0)" />
        <text x="35.0" y="8" text-anchor="middle" font-size="7.5" fill="white" opacity="1" data-maxwidth="61" font-family="Monospace">MACPF</text>
    </g>
    <g transform="translate(97.5, 5)" dataentity="PF04548.22">
        <path d="m5,0h79.5h5v10h-5h-79.5h-5v-10h5z" fill="#5ec2d3" mask="url(#PF04548.22_0)" />
        <text x="44.75" y="8" text-anchor="middle" font-size="7.5" fill="white" opacity="1" data-maxwidth="61" font-family="Monospace">AIG1</text>
    </g>
    <g transform="translate(98.0, 5)" dataentity="PF01926.29">
        <path d="m5,0h55.0h5v10h-5h-55.0h-5v-10h5z" fill="#357bdb" mask="url(#PF01926.29_0)" />
        <text x="32.5" y="8" text-anchor="middle" font-size="7.5" fill="white" opacity="1" data-maxwidth="61" font-family="Monospace">MMR_HSR1</text>
    </g>
</svg>