<svg width="385.5" height="20" viewBox="0 0 385.5 20" style="width: 771.0px; height: 40px" xmlns="http://www.w3.org/2000/svg">
    <defs>
        <mask id="PF01926.29_0" width="54.5" height="10" fill="#fff">
            <rect x="0" y="0" width="0.5" height="10" opacity="0.6" />
            <rect x="0.5" y="0" width="36.5" height="10" opacity="1" />
            <rect x="37.0" y="0" width="17.5" height="10" opacity="0.6" />
        </mask>
        <mask id="PF01823.24_0" width="54.0" height="10" fill="#fff">
            <rect x="0" y="0" width="1.5" height="10" opacity="0.6" />
            <rect x="1.5" y="0" width="41.5" height="10" opacity="1" />
            <rect x="43.0" y="0" width="11.0" height="10" opacity="0.6" />
        </mask>
    </defs>
    <g transform="translate(0 10)">
        <rect x="0" y="-2.5" width="383.5" height="5" fill="#d8d8d8" rx="2.5" ry="2.5" />
    </g>
    <g transform="translate(51.5, 5)" dataentity="PF01926.29">
        <path d="m5,0h44.5h5v10h-5h-44.5h-5v-10h5z" fill="#357bdb" mask="url(#PF01926.29_0)" />
        <text x="27.25" y="8" text-anchor="middle" font-size="7.5" fill="white" opacity="1" data-maxwidth="61" font-family="Monospace">MMR_HSR1</text>
    </g>
    <g transform="translate(245.0, 5)" dataentity="PF01823.24">
        <path d="m5,0h44.0h5v10h-5h-44.0h-5v-10h5z" fill="#83daac" mask="url(#PF01823.24_0)" />
        <text x="27.0" y="8" text-anchor="middle" font-size="7.5" fill="white" opacity="1" data-maxwidth="61" font-family="Monospace">MACPF</text>
    </g>
</svg>