<svg width="394.0" height="20" viewBox="0 0 394.0 20" style="width: 788.0px; height: 40px" xmlns="http://www.w3.org/2000/svg">
    <defs>
        <mask id="PF22693.1_0" width="125.0" height="10" fill="#fff">
            <rect x="0" y="0" width="35.5" height="10" opacity="0.6" />
            <rect x="35.5" y="0" width="86.0" height="10" opacity="1" />
            <rect x="121.5" y="0" width="3.5" height="10" opacity="0.6" />
        </mask>
        <mask id="PF01823.24_1" width="108.0" height="10" fill="#fff">
            <rect x="0" y="0" width="12.0" height="10" opacity="0.6" />
            <rect x="12.0" y="0" width="91.5" height="10" opacity="1" />
            <rect x="103.5" y="0" width="4.5" height="10" opacity="0.6" />
        </mask>
    </defs>
    <g transform="translate(0 10)">
        <rect x="0" y="-2.5" width="392.0" height="5" fill="#d8d8d8" rx="2.5" ry="2.5" />
    </g>
    <g transform="translate(68.0, 5)" dataentity="PF22693.1">
        <path d="m5,0h115.0h5v10h-5h-115.0h-5v-10h5z" fill="#e3712b" mask="url(#PF22693.1_0)" />
        <text x="62.5" y="8" text-anchor="middle" font-size="7.5" fill="white" opacity="1" data-maxwidth="61" font-family="Monospace">MACPF_1</text>
    </g>
    <g transform="translate(94.0, 5)" dataentity="PF01823.24">
        <path d="m5,0h98.0h5v10h-5h-98.0h-5v-10h5z" fill="#83daac" mask="url(#PF01823.24_1)" />
        <text x="54.0" y="8" text-anchor="middle" font-size="7.5" fill="white" opacity="1" data-maxwidth="61" font-family="Monospace">MACPF</text>
    </g>
</svg>