<svg width="375.5" height="20" viewBox="0 0 375.5 20" style="width: 751.0px; height: 40px" xmlns="http://www.w3.org/2000/svg">
    <defs>
        <mask id="PF01823.24_0" width="50.0" height="10" fill="#fff">
            <rect x="0" y="0" width="10.5" height="10" opacity="0.6" />
            <rect x="10.5" y="0" width="28.5" height="10" opacity="1" />
            <rect x="39.0" y="0" width="11.0" height="10" opacity="0.6" />
        </mask>
        <mask id="PF01926.29_1" width="57.0" height="10" fill="#fff">
            <rect x="0" y="0" width="0.5" height="10" opacity="0.6" />
            <rect x="0.5" y="0" width="39.5" height="10" opacity="1" />
            <rect x="40.0" y="0" width="17.0" height="10" opacity="0.6" />
        </mask>
    </defs>
    <g transform="translate(0 10)">
        <rect x="0" y="-2.5" width="373.5" height="5" fill="#d8d8d8" rx="2.5" ry="2.5" />
    </g>
    <g transform="translate(266.5, 5)" dataentity="PF01823.24">
        <path d="m5,0h40.0h5v10h-5h-40.0h-5v-10h5z" fill="#83daac" mask="url(#PF01823.24_0)" />
        <text x="25.0" y="8" text-anchor="middle" font-size="7.5" fill="white" opacity="1" data-maxwidth="61" font-family="Monospace">MACPF</text>
    </g>
    <g transform="translate(104.5, 5)" dataentity="PF01926.29">
        <path d="m5,0h47.0h5v10h-5h-47.0h-5v-10h5z" fill="#357bdb" mask="url(#PF01926.29_1)" />
        <text x="28.5" y="8" text-anchor="middle" font-size="7.5" fill="white" opacity="1" data-maxwidth="61" font-family="Monospace">MMR_HSR1</text>
    </g>
</svg>