<svg width="245.0" height="20" viewBox="0 0 245.0 20" style="width: 490.0px; height: 40px" xmlns="http://www.w3.org/2000/svg">
    <defs>
        <mask id="PF18885.6_0" width="57.5" height="10" fill="#fff">
            <rect x="0" y="0" width="11.5" height="10" opacity="0.6" />
            <rect x="11.5" y="0" width="44.0" height="10" opacity="1" />
            <rect x="55.5" y="0" width="2.0" height="10" opacity="0.6" />
        </mask>
        <mask id="PF18885.6_1" width="71.0" height="10" fill="#fff">
            <rect x="0" y="0" width="0.0" height="10" opacity="0.6" />
            <rect x="0.0" y="0" width="70.5" height="10" opacity="1" />
            <rect x="70.5" y="0" width="0.5" height="10" opacity="0.6" />
        </mask>
        <mask id="PF22693.1_0" width="122.5" height="10" fill="#fff">
            <rect x="0" y="0" width="11.0" height="10" opacity="0.6" />
            <rect x="11.0" y="0" width="109.5" height="10" opacity="1" />
            <rect x="120.5" y="0" width="2.0" height="10" opacity="0.6" />
        </mask>
        <mask id="PF01823.24_0" width="85.5" height="10" fill="#fff">
            <rect x="0" y="0" width="8.0" height="10" opacity="0.6" />
            <rect x="8.0" y="0" width="74.5" height="10" opacity="1" />
            <rect x="82.5" y="0" width="3.0" height="10" opacity="0.6" />
        </mask>
    </defs>
    <g transform="translate(0 10)">
        <rect x="0" y="-2.5" width="243.0" height="5" fill="#d8d8d8" rx="2.5" ry="2.5" />
    </g>
    <g transform="translate(151.5, 5)" dataentity="PF18885.6">
        <path d="m5,0h47.5h5v10h-5h-47.5h-5v-10h5z" fill="#c453ce" mask="url(#PF18885.6_0)" />
        <text x="28.75" y="8" text-anchor="middle" font-size="7.5" fill="white" opacity="1" data-maxwidth="61" font-family="Monospace">DUF5648</text>
    </g>
    <g transform="translate(169.5, 5)" dataentity="PF18885.6">
        <path d="m5,0h61.0h5v10h-5h-61.0h-5v-10h5z" fill="#c453ce" mask="url(#PF18885.6_1)" />
        <text x="35.5" y="8" text-anchor="middle" font-size="7.5" fill="white" opacity="1" data-maxwidth="61" font-family="Monospace">DUF5648</text>
    </g>
    <g transform="translate(34.5, 5)" dataentity="PF22693.1">
        <path d="m5,0h112.5h5v10h-5h-112.5h-5v-10h5z" fill="#e3712b" mask="url(#PF22693.1_0)" />
        <text x="61.25" y="8" text-anchor="middle" font-size="7.5" fill="white" opacity="1" data-maxwidth="61" font-family="Monospace">MACPF_1</text>
    </g>
    <g transform="translate(61.0, 5)" dataentity="PF01823.24">
        <path d="m5,0h75.5h5v10h-5h-75.5h-5v-10h5z" fill="#83daac" mask="url(#PF01823.24_0)" />
        <text x="42.75" y="8" text-anchor="middle" font-size="7.5" fill="white" opacity="1" data-maxwidth="61" font-family="Monospace">MACPF</text>
    </g>
</svg>