<svg width="380.5" height="20" viewBox="0 0 380.5 20" style="width: 761.0px; height: 40px" xmlns="http://www.w3.org/2000/svg">
    <defs>
        <mask id="PF22693.1_0" width="120.0" height="10" fill="#fff">
            <rect x="0" y="0" width="15.5" height="10" opacity="0.6" />
            <rect x="15.5" y="0" width="103.0" height="10" opacity="1" />
            <rect x="118.5" y="0" width="1.5" height="10" opacity="0.6" />
        </mask>
        <mask id="PF01823.24_0" width="96.5" height="10" fill="#fff">
            <rect x="0" y="0" width="8.5" height="10" opacity="0.6" />
            <rect x="8.5" y="0" width="77.5" height="10" opacity="1" />
            <rect x="86.0" y="0" width="10.5" height="10" opacity="0.6" />
        </mask>
    </defs>
    <g transform="translate(0 10)">
        <rect x="0" y="-2.5" width="378.5" height="5" fill="#d8d8d8" rx="2.5" ry="2.5" />
    </g>
    <g transform="translate(81.0, 5)" dataentity="PF22693.1">
        <path d="m5,0h110.0h5v10h-5h-110.0h-5v-10h5z" fill="#e3712b" mask="url(#PF22693.1_0)" />
        <text x="60.0" y="8" text-anchor="middle" font-size="7.5" fill="white" opacity="1" data-maxwidth="61" font-family="Monospace">MACPF_1</text>
    </g>
    <g transform="translate(104.0, 5)" dataentity="PF01823.24">
        <path d="m5,0h86.5h5v10h-5h-86.5h-5v-10h5z" fill="#83daac" mask="url(#PF01823.24_0)" />
        <text x="48.25" y="8" text-anchor="middle" font-size="7.5" fill="white" opacity="1" data-maxwidth="61" font-family="Monospace">MACPF</text>
    </g>
</svg>