<svg width="351.5" height="20" viewBox="0 0 351.5 20" style="width: 703.0px; height: 40px" xmlns="http://www.w3.org/2000/svg">
    <defs>
        <mask id="PF04548.22_0" width="41.5" height="10" fill="#fff">
            <rect x="0" y="0" width="0.5" height="10" opacity="0.6" />
            <rect x="0.5" y="0" width="33.5" height="10" opacity="1" />
            <rect x="34.0" y="0" width="7.5" height="10" opacity="0.6" />
        </mask>
        <mask id="PF01823.24_0" width="38.5" height="10" fill="#fff">
            <rect x="0" y="0" width="8.0" height="10" opacity="0.6" />
            <rect x="8.0" y="0" width="29.0" height="10" opacity="1" />
            <rect x="37.0" y="0" width="1.5" height="10" opacity="0.6" />
        </mask>
        <mask id="PF01926.29_0" width="46.5" height="10" fill="#fff">
            <rect x="0" y="0" width="0.5" height="10" opacity="0.6" />
            <rect x="0.5" y="0" width="31.0" height="10" opacity="1" />
            <rect x="31.5" y="0" width="15.0" height="10" opacity="0.6" />
        </mask>
    </defs>
    <g transform="translate(0 10)">
        <rect x="0" y="-2.5" width="349.5" height="5" fill="#d8d8d8" rx="2.5" ry="2.5" />
    </g>
    <g transform="translate(35.5, 5)" dataentity="PF04548.22">
        <path d="m5,0h31.5h5v10h-5h-31.5h-5v-10h5z" fill="#5ec2d3" mask="url(#PF04548.22_0)" />
        <text x="20.75" y="8" text-anchor="middle" font-size="7.5" fill="white" opacity="1" data-maxwidth="61" font-family="Monospace">AIG1</text>
    </g>
    <g transform="translate(229.5, 5)" dataentity="PF01823.24">
        <path d="m5,0h28.5h5v10h-5h-28.5h-5v-10h5z" fill="#83daac" mask="url(#PF01823.24_0)" />
        <text x="19.25" y="8" text-anchor="middle" font-size="7.5" fill="white" opacity="1" data-maxwidth="61" font-family="Monospace">MACPF</text>
    </g>
    <g transform="translate(36.0, 5)" dataentity="PF01926.29">
        <path d="m5,0h36.5h5v10h-5h-36.5h-5v-10h5z" fill="#357bdb" mask="url(#PF01926.29_0)" />
        <text x="23.25" y="8" text-anchor="middle" font-size="7.5" fill="white" opacity="1" data-maxwidth="61" font-family="Monospace">MMR_HSR1</text>
    </g>
</svg>