<svg width="387.5" height="20" viewBox="0 0 387.5 20" style="width: 775.0px; height: 40px" xmlns="http://www.w3.org/2000/svg">
    <defs>
        <mask id="PF04548.22_0" width="83.0" height="10" fill="#fff">
            <rect x="0" y="0" width="1.0" height="10" opacity="0.6" />
            <rect x="1.0" y="0" width="61.0" height="10" opacity="1" />
            <rect x="62.0" y="0" width="21.0" height="10" opacity="0.6" />
        </mask>
        <mask id="PF01823.24_0" width="55.0" height="10" fill="#fff">
            <rect x="0" y="0" width="9.0" height="10" opacity="0.6" />
            <rect x="9.0" y="0" width="29.5" height="10" opacity="1" />
            <rect x="38.5" y="0" width="16.5" height="10" opacity="0.6" />
        </mask>
        <mask id="PF01926.29_0" width="63.5" height="10" fill="#fff">
            <rect x="0" y="0" width="0.5" height="10" opacity="0.6" />
            <rect x="0.5" y="0" width="41.5" height="10" opacity="1" />
            <rect x="42.0" y="0" width="21.5" height="10" opacity="0.6" />
        </mask>
    </defs>
    <g transform="translate(0 10)">
        <rect x="0" y="-2.5" width="385.5" height="5" fill="#d8d8d8" rx="2.5" ry="2.5" />
    </g>
    <g transform="translate(99.5, 5)" dataentity="PF04548.22">
        <path d="m5,0h73.0h5v10h-5h-73.0h-5v-10h5z" fill="#5ec2d3" mask="url(#PF04548.22_0)" />
        <text x="41.5" y="8" text-anchor="middle" font-size="7.5" fill="white" opacity="1" data-maxwidth="61" font-family="Monospace">AIG1</text>
    </g>
    <g transform="translate(277.5, 5)" dataentity="PF01823.24">
        <path d="m5,0h45.0h5v10h-5h-45.0h-5v-10h5z" fill="#83daac" mask="url(#PF01823.24_0)" />
        <text x="27.5" y="8" text-anchor="middle" font-size="7.5" fill="white" opacity="1" data-maxwidth="61" font-family="Monospace">MACPF</text>
    </g>
    <g transform="translate(100.0, 5)" dataentity="PF01926.29">
        <path d="m5,0h53.5h5v10h-5h-53.5h-5v-10h5z" fill="#357bdb" mask="url(#PF01926.29_0)" />
        <text x="31.75" y="8" text-anchor="middle" font-size="7.5" fill="white" opacity="1" data-maxwidth="61" font-family="Monospace">MMR_HSR1</text>
    </g>
</svg>