<svg width="367.5" height="20" viewBox="0 0 367.5 20" style="width: 735.0px; height: 40px" xmlns="http://www.w3.org/2000/svg">
    <defs>
        <mask id="PF01823.24_0" width="47.0" height="10" fill="#fff">
            <rect x="0" y="0" width="10.0" height="10" opacity="0.6" />
            <rect x="10.0" y="0" width="32.5" height="10" opacity="1" />
            <rect x="42.5" y="0" width="4.5" height="10" opacity="0.6" />
        </mask>
        <mask id="PF01926.29_0" width="61.0" height="10" fill="#fff">
            <rect x="0" y="0" width="0.5" height="10" opacity="0.6" />
            <rect x="0.5" y="0" width="36.5" height="10" opacity="1" />
            <rect x="37.0" y="0" width="24.0" height="10" opacity="0.6" />
        </mask>
    </defs>
    <g transform="translate(0 10)">
        <rect x="0" y="-2.5" width="365.5" height="5" fill="#d8d8d8" rx="2.5" ry="2.5" />
    </g>
    <g transform="translate(263.0, 5)" dataentity="PF01823.24">
        <path d="m5,0h37.0h5v10h-5h-37.0h-5v-10h5z" fill="#83daac" mask="url(#PF01823.24_0)" />
        <text x="23.5" y="8" text-anchor="middle" font-size="7.5" fill="white" opacity="1" data-maxwidth="61" font-family="Monospace">MACPF</text>
    </g>
    <g transform="translate(85.5, 5)" dataentity="PF01926.29">
        <path d="m5,0h51.0h5v10h-5h-51.0h-5v-10h5z" fill="#357bdb" mask="url(#PF01926.29_0)" />
        <text x="30.5" y="8" text-anchor="middle" font-size="7.5" fill="white" opacity="1" data-maxwidth="61" font-family="Monospace">MMR_HSR1</text>
    </g>
</svg>