<svg width="456.5" height="20" viewBox="0 0 456.5 20" style="width: 913.0px; height: 40px" xmlns="http://www.w3.org/2000/svg">
    <defs>
        <mask id="PF01823.24_0" width="58.5" height="10" fill="#fff">
            <rect x="0" y="0" width="13.0" height="10" opacity="0.6" />
            <rect x="13.0" y="0" width="34.5" height="10" opacity="1" />
            <rect x="47.5" y="0" width="11.0" height="10" opacity="0.6" />
        </mask>
        <mask id="PF01926.29_0" width="72.5" height="10" fill="#fff">
            <rect x="0" y="0" width="1.0" height="10" opacity="0.6" />
            <rect x="1.0" y="0" width="49.0" height="10" opacity="1" />
            <rect x="50.0" y="0" width="22.5" height="10" opacity="0.6" />
        </mask>
    </defs>
    <g transform="translate(0 10)">
        <rect x="0" y="-2.5" width="454.5" height="5" fill="#d8d8d8" rx="2.5" ry="2.5" />
    </g>
    <g transform="translate(322.5, 5)" dataentity="PF01823.24">
        <path d="m5,0h48.5h5v10h-5h-48.5h-5v-10h5z" fill="#83daac" mask="url(#PF01823.24_0)" />
        <text x="29.25" y="8" text-anchor="middle" font-size="7.5" fill="white" opacity="1" data-maxwidth="61" font-family="Monospace">MACPF</text>
    </g>
    <g transform="translate(143.5, 5)" dataentity="PF01926.29">
        <path d="m5,0h62.5h5v10h-5h-62.5h-5v-10h5z" fill="#357bdb" mask="url(#PF01926.29_0)" />
        <text x="36.25" y="8" text-anchor="middle" font-size="7.5" fill="white" opacity="1" data-maxwidth="61" font-family="Monospace">MMR_HSR1</text>
    </g>
</svg>