<svg width="322.5" height="20" viewBox="0 0 322.5 20" style="width: 645.0px; height: 40px" xmlns="http://www.w3.org/2000/svg">
    <defs>
        <mask id="PF22693.1_0" width="129.0" height="10" fill="#fff">
            <rect x="0" y="0" width="2.0" height="10" opacity="0.6" />
            <rect x="2.0" y="0" width="126.5" height="10" opacity="1" />
            <rect x="128.5" y="0" width="0.5" height="10" opacity="0.6" />
        </mask>
        <mask id="PF01823.24_0" width="100.5" height="10" fill="#fff">
            <rect x="0" y="0" width="0.5" height="10" opacity="0.6" />
            <rect x="0.5" y="0" width="95.0" height="10" opacity="1" />
            <rect x="95.5" y="0" width="5.0" height="10" opacity="0.6" />
        </mask>
    </defs>
    <g transform="translate(0 10)">
        <rect x="0" y="-2.5" width="320.5" height="5" fill="#d8d8d8" rx="2.5" ry="2.5" />
    </g>
    <g transform="translate(85.5, 5)" dataentity="PF22693.1">
        <path d="m5,0h119.0h5v10h-5h-119.0h-5v-10h5z" fill="#e3712b" mask="url(#PF22693.1_0)" />
        <text x="64.5" y="8" text-anchor="middle" font-size="7.5" fill="white" opacity="1" data-maxwidth="61" font-family="Monospace">MACPF_1</text>
    </g>
    <g transform="translate(116.5, 5)" dataentity="PF01823.24">
        <path d="m5,0h90.5h5v10h-5h-90.5h-5v-10h5z" fill="#83daac" mask="url(#PF01823.24_0)" />
        <text x="50.25" y="8" text-anchor="middle" font-size="7.5" fill="white" opacity="1" data-maxwidth="61" font-family="Monospace">MACPF</text>
    </g>
</svg>