<svg width="516.0" height="20" viewBox="0 0 516.0 20" style="width: 1032.0px; height: 40px" xmlns="http://www.w3.org/2000/svg">
    <defs>
        <mask id="PF01823.24_0" width="46.5" height="10" fill="#fff">
            <rect x="0" y="0" width="15.0" height="10" opacity="0.6" />
            <rect x="15.0" y="0" width="29.0" height="10" opacity="1" />
            <rect x="44.0" y="0" width="2.5" height="10" opacity="0.6" />
        </mask>
        <mask id="PF01926.29_1" width="87.0" height="10" fill="#fff">
            <rect x="0" y="0" width="0.5" height="10" opacity="0.6" />
            <rect x="0.5" y="0" width="41.0" height="10" opacity="1" />
            <rect x="41.5" y="0" width="45.5" height="10" opacity="0.6" />
        </mask>
    </defs>
    <g transform="translate(0 10)">
        <rect x="0" y="-2.5" width="514.0" height="5" fill="#d8d8d8" rx="2.5" ry="2.5" />
    </g>
    <g transform="translate(279.0, 5)" dataentity="PF01823.24">
        <path d="m5,0h36.5h5v10h-5h-36.5h-5v-10h5z" fill="#83daac" mask="url(#PF01823.24_0)" />
        <text x="23.25" y="8" text-anchor="middle" font-size="7.5" fill="white" opacity="1" data-maxwidth="61" font-family="Monospace">MACPF</text>
    </g>
    <g transform="translate(92.0, 5)" dataentity="PF01926.29">
        <path d="m5,0h77.0h5v10h-5h-77.0h-5v-10h5z" fill="#357bdb" mask="url(#PF01926.29_1)" />
        <text x="43.5" y="8" text-anchor="middle" font-size="7.5" fill="white" opacity="1" data-maxwidth="61" font-family="Monospace">MMR_HSR1</text>
    </g>
</svg>