<svg width="530.5" height="20" viewBox="0 0 530.5 20" style="width: 1061.0px; height: 40px" xmlns="http://www.w3.org/2000/svg">
    <defs>
        <mask id="PF22693.1_0" width="122.5" height="10" fill="#fff">
            <rect x="0" y="0" width="10.5" height="10" opacity="0.6" />
            <rect x="10.5" y="0" width="110.0" height="10" opacity="1" />
            <rect x="120.5" y="0" width="2.0" height="10" opacity="0.6" />
        </mask>
        <mask id="PF01823.24_0" width="106.5" height="10" fill="#fff">
            <rect x="0" y="0" width="8.0" height="10" opacity="0.6" />
            <rect x="8.0" y="0" width="90.0" height="10" opacity="1" />
            <rect x="98.0" y="0" width="8.5" height="10" opacity="0.6" />
        </mask>
    </defs>
    <g transform="translate(0 10)">
        <rect x="0" y="-2.5" width="528.5" height="5" fill="#d8d8d8" rx="2.5" ry="2.5" />
    </g>
    <g transform="translate(219.0, 5)" dataentity="PF22693.1">
        <path d="m5,0h112.5h5v10h-5h-112.5h-5v-10h5z" fill="#e3712b" mask="url(#PF22693.1_0)" />
        <text x="61.25" y="8" text-anchor="middle" font-size="7.5" fill="white" opacity="1" data-maxwidth="61" font-family="Monospace">MACPF_1</text>
    </g>
    <g transform="translate(243.0, 5)" dataentity="PF01823.24">
        <path d="m5,0h96.5h5v10h-5h-96.5h-5v-10h5z" fill="#83daac" mask="url(#PF01823.24_0)" />
        <text x="53.25" y="8" text-anchor="middle" font-size="7.5" fill="white" opacity="1" data-maxwidth="61" font-family="Monospace">MACPF</text>
    </g>
</svg>