<svg width="242.5" height="20" viewBox="0 0 242.5 20" style="width: 485.0px; height: 40px" xmlns="http://www.w3.org/2000/svg">
    <defs>
        <mask id="PF18684.6_2" width="78.5" height="10" fill="#fff">
            <rect x="0" y="0" width="0.0" height="10" opacity="0.6" />
            <rect x="0.0" y="0" width="78.5" height="10" opacity="1" />
            <rect x="78.5" y="0" width="0.0" height="10" opacity="0.6" />
        </mask>
        <mask id="PF22693.1_0" width="58.5" height="10" fill="#fff">
            <rect x="0" y="0" width="0.0" height="10" opacity="0.6" />
            <rect x="0.0" y="0" width="57.0" height="10" opacity="1" />
            <rect x="57.0" y="0" width="1.5" height="10" opacity="0.6" />
        </mask>
        <mask id="PF22693.1_1" width="69.5" height="10" fill="#fff">
            <rect x="0" y="0" width="5.0" height="10" opacity="0.6" />
            <rect x="5.0" y="0" width="64.0" height="10" opacity="1" />
            <rect x="69.0" y="0" width="0.5" height="10" opacity="0.6" />
        </mask>
    </defs>
    <g transform="translate(0 10)">
        <rect x="0" y="-2.5" width="240.5" height="5" fill="#d8d8d8" rx="2.5" ry="2.5" />
    </g>
    <g transform="translate(160.5, 5)" dataentity="PF18684.6">
        <path d="m5,0h68.5h5v10h-5h-68.5h-5v-10h5z" fill="#43e3be" mask="url(#PF18684.6_2)" />
        <text x="39.25" y="8" text-anchor="middle" font-size="7.5" fill="white" opacity="1" data-maxwidth="61" font-family="Monospace">PlyB_C</text>
    </g>
    <g transform="translate(27.5, 5)" dataentity="PF22693.1">
        <path d="m5,0h48.5h5v10h-5h-48.5h-5v-10h5z" fill="#e3712b" mask="url(#PF22693.1_0)" />
        <text x="29.25" y="8" text-anchor="middle" font-size="7.5" fill="white" opacity="1" data-maxwidth="61" font-family="Monospace">MACPF_1</text>
    </g>
    <g transform="translate(88.0, 5)" dataentity="PF22693.1">
        <path d="m5,0h59.5h5v10h-5h-59.5h-5v-10h5z" fill="#e3712b" mask="url(#PF22693.1_1)" />
        <text x="34.75" y="8" text-anchor="middle" font-size="7.5" fill="white" opacity="1" data-maxwidth="61" font-family="Monospace">MACPF_1</text>
    </g>
</svg>