<svg width="218.0" height="20" viewBox="0 0 218.0 20" style="width: 436.0px; height: 40px" xmlns="http://www.w3.org/2000/svg">
    <defs>
        <mask id="PF22693.1_0" width="127.0" height="10" fill="#fff">
            <rect x="0" y="0" width="13.5" height="10" opacity="0.6" />
            <rect x="13.5" y="0" width="112.0" height="10" opacity="1" />
            <rect x="125.5" y="0" width="1.5" height="10" opacity="0.6" />
        </mask>
        <mask id="PF18885.6_0" width="68.0" height="10" fill="#fff">
            <rect x="0" y="0" width="4.0" height="10" opacity="0.6" />
            <rect x="4.0" y="0" width="56.5" height="10" opacity="1" />
            <rect x="60.5" y="0" width="7.5" height="10" opacity="0.6" />
        </mask>
        <mask id="PF01823.24_0" width="86.5" height="10" fill="#fff">
            <rect x="0" y="0" width="6.0" height="10" opacity="0.6" />
            <rect x="6.0" y="0" width="74.5" height="10" opacity="1" />
            <rect x="80.5" y="0" width="6.0" height="10" opacity="0.6" />
        </mask>
    </defs>
    <g transform="translate(0 10)">
        <rect x="0" y="-2.5" width="216.0" height="5" fill="#d8d8d8" rx="2.5" ry="2.5" />
    </g>
    <g transform="translate(15.5, 5)" dataentity="PF22693.1">
        <path d="m5,0h117.0h5v10h-5h-117.0h-5v-10h5z" fill="#e3712b" mask="url(#PF22693.1_0)" />
        <text x="63.5" y="8" text-anchor="middle" font-size="7.5" fill="white" opacity="1" data-maxwidth="61" font-family="Monospace">MACPF_1</text>
    </g>
    <g transform="translate(146.5, 5)" dataentity="PF18885.6">
        <path d="m5,0h58.0h5v10h-5h-58.0h-5v-10h5z" fill="#c453ce" mask="url(#PF18885.6_0)" />
        <text x="34.0" y="8" text-anchor="middle" font-size="7.5" fill="white" opacity="1" data-maxwidth="61" font-family="Monospace">DUF5648</text>
    </g>
    <g transform="translate(48.0, 5)" dataentity="PF01823.24">
        <path d="m5,0h76.5h5v10h-5h-76.5h-5v-10h5z" fill="#83daac" mask="url(#PF01823.24_0)" />
        <text x="43.25" y="8" text-anchor="middle" font-size="7.5" fill="white" opacity="1" data-maxwidth="61" font-family="Monospace">MACPF</text>
    </g>
</svg>