<svg width="367.0" height="20" viewBox="0 0 367.0 20" style="width: 734.0px; height: 40px" xmlns="http://www.w3.org/2000/svg">
    <defs>
        <mask id="PF22693.1_0" width="113.5" height="10" fill="#fff">
            <rect x="0" y="0" width="19.5" height="10" opacity="0.6" />
            <rect x="19.5" y="0" width="87.5" height="10" opacity="1" />
            <rect x="107.0" y="0" width="6.5" height="10" opacity="0.6" />
        </mask>
        <mask id="PF01823.24_0" width="91.0" height="10" fill="#fff">
            <rect x="0" y="0" width="19.5" height="10" opacity="0.6" />
            <rect x="19.5" y="0" width="66.0" height="10" opacity="1" />
            <rect x="85.5" y="0" width="5.5" height="10" opacity="0.6" />
        </mask>
    </defs>
    <g transform="translate(0 10)">
        <rect x="0" y="-2.5" width="365.0" height="5" fill="#d8d8d8" rx="2.5" ry="2.5" />
    </g>
    <g transform="translate(85.0, 5)" dataentity="PF22693.1">
        <path d="m5,0h103.5h5v10h-5h-103.5h-5v-10h5z" fill="#e3712b" mask="url(#PF22693.1_0)" />
        <text x="56.75" y="8" text-anchor="middle" font-size="7.5" fill="white" opacity="1" data-maxwidth="61" font-family="Monospace">MACPF_1</text>
    </g>
    <g transform="translate(101.5, 5)" dataentity="PF01823.24">
        <path d="m5,0h81.0h5v10h-5h-81.0h-5v-10h5z" fill="#83daac" mask="url(#PF01823.24_0)" />
        <text x="45.5" y="8" text-anchor="middle" font-size="7.5" fill="white" opacity="1" data-maxwidth="61" font-family="Monospace">MACPF</text>
    </g>
</svg>