<svg width="339.5" height="20" viewBox="0 0 339.5 20" style="width: 679.0px; height: 40px" xmlns="http://www.w3.org/2000/svg">
    <defs>
        <mask id="PF22693.1_0" width="130.5" height="10" fill="#fff">
            <rect x="0" y="0" width="1.0" height="10" opacity="0.6" />
            <rect x="1.0" y="0" width="129.5" height="10" opacity="1" />
            <rect x="130.5" y="0" width="0.0" height="10" opacity="0.6" />
        </mask>
        <mask id="PF13385.13_0" width="82.0" height="10" fill="#fff">
            <rect x="0" y="0" width="6.0" height="10" opacity="0.6" />
            <rect x="6.0" y="0" width="74.0" height="10" opacity="1" />
            <rect x="80.0" y="0" width="2.0" height="10" opacity="0.6" />
        </mask>
    </defs>
    <g transform="translate(0 10)">
        <rect x="0" y="-2.5" width="337.5" height="5" fill="#d8d8d8" rx="2.5" ry="2.5" />
    </g>
    <g transform="translate(103.5, 5)" dataentity="PF22693.1">
        <path d="m5,0h120.5h5v10h-5h-120.5h-5v-10h5z" fill="#e3712b" mask="url(#PF22693.1_0)" />
        <text x="65.25" y="8" text-anchor="middle" font-size="7.5" fill="white" opacity="1" data-maxwidth="61" font-family="Monospace">MACPF_1</text>
    </g>
    <g transform="translate(249.0, 5)" dataentity="PF13385.13">
        <path d="m5,0h72.0h5v10h-5h-72.0h-5v-10h5z" fill="#d4f043" mask="url(#PF13385.13_0)" />
        <text x="41.0" y="8" text-anchor="middle" font-size="7.5" fill="white" opacity="1" data-maxwidth="61" font-family="Monospace">Laminin_G_3</text>
    </g>
</svg>