<svg width="187.0" height="20" viewBox="0 0 187.0 20" style="width: 374.0px; height: 40px" xmlns="http://www.w3.org/2000/svg">
    <defs>
        <mask id="PF22693.1_0" width="111.0" height="10" fill="#fff">
            <rect x="0" y="0" width="4.5" height="10" opacity="0.6" />
            <rect x="4.5" y="0" width="105.5" height="10" opacity="1" />
            <rect x="110.0" y="0" width="1.0" height="10" opacity="0.6" />
        </mask>
        <mask id="PF18885.6_0" width="67.0" height="10" fill="#fff">
            <rect x="0" y="0" width="1.0" height="10" opacity="0.6" />
            <rect x="1.0" y="0" width="65.5" height="10" opacity="1" />
            <rect x="66.5" y="0" width="0.5" height="10" opacity="0.6" />
        </mask>
        <mask id="PF01823.24_0" width="99.5" height="10" fill="#fff">
            <rect x="0" y="0" width="2.5" height="10" opacity="0.6" />
            <rect x="2.5" y="0" width="82.5" height="10" opacity="1" />
            <rect x="85.0" y="0" width="14.5" height="10" opacity="0.6" />
        </mask>
    </defs>
    <g transform="translate(0 10)">
        <rect x="0" y="-2.5" width="185.0" height="5" fill="#d8d8d8" rx="2.5" ry="2.5" />
    </g>
    <g transform="translate(1.5, 5)" dataentity="PF22693.1">
        <path d="m5,0h101.0h5v10h-5h-101.0h-5v-10h5z" fill="#e3712b" mask="url(#PF22693.1_0)" />
        <text x="55.5" y="8" text-anchor="middle" font-size="7.5" fill="white" opacity="1" data-maxwidth="61" font-family="Monospace">MACPF_1</text>
    </g>
    <g transform="translate(116.5, 5)" dataentity="PF18885.6">
        <path d="m5,0h57.0h5v10h-5h-57.0h-5v-10h5z" fill="#c453ce" mask="url(#PF18885.6_0)" />
        <text x="33.5" y="8" text-anchor="middle" font-size="7.5" fill="white" opacity="1" data-maxwidth="61" font-family="Monospace">DUF5648</text>
    </g>
    <g transform="translate(14.0, 5)" dataentity="PF01823.24">
        <path d="m5,0h89.5h5v10h-5h-89.5h-5v-10h5z" fill="#83daac" mask="url(#PF01823.24_0)" />
        <text x="49.75" y="8" text-anchor="middle" font-size="7.5" fill="white" opacity="1" data-maxwidth="61" font-family="Monospace">MACPF</text>
    </g>
</svg>