<svg width="408.0" height="20" viewBox="0 0 408.0 20" style="width: 816.0px; height: 40px" xmlns="http://www.w3.org/2000/svg">
    <defs>
        <mask id="PF01823.24_0" width="40.5" height="10" fill="#fff">
            <rect x="0" y="0" width="2.5" height="10" opacity="0.6" />
            <rect x="2.5" y="0" width="33.5" height="10" opacity="1" />
            <rect x="36.0" y="0" width="4.5" height="10" opacity="0.6" />
        </mask>
        <mask id="PF04548.22_0" width="93.5" height="10" fill="#fff">
            <rect x="0" y="0" width="1.0" height="10" opacity="0.6" />
            <rect x="1.0" y="0" width="86.5" height="10" opacity="1" />
            <rect x="87.5" y="0" width="6.0" height="10" opacity="0.6" />
        </mask>
        <mask id="PF01926.29_0" width="77.0" height="10" fill="#fff">
            <rect x="0" y="0" width="0.5" height="10" opacity="0.6" />
            <rect x="0.5" y="0" width="39.0" height="10" opacity="1" />
            <rect x="39.5" y="0" width="37.5" height="10" opacity="0.6" />
        </mask>
    </defs>
    <g transform="translate(0 10)">
        <rect x="0" y="-2.5" width="406.0" height="5" fill="#d8d8d8" rx="2.5" ry="2.5" />
    </g>
    <g transform="translate(297.0, 5)" dataentity="PF01823.24">
        <path d="m5,0h30.5h5v10h-5h-30.5h-5v-10h5z" fill="#83daac" mask="url(#PF01823.24_0)" />
        <text x="20.25" y="8" text-anchor="middle" font-size="7.5" fill="white" opacity="1" data-maxwidth="61" font-family="Monospace">MACPF</text>
    </g>
    <g transform="translate(107.0, 5)" dataentity="PF04548.22">
        <path d="m5,0h83.5h5v10h-5h-83.5h-5v-10h5z" fill="#5ec2d3" mask="url(#PF04548.22_0)" />
        <text x="46.75" y="8" text-anchor="middle" font-size="7.5" fill="white" opacity="1" data-maxwidth="61" font-family="Monospace">AIG1</text>
    </g>
    <g transform="translate(107.5, 5)" dataentity="PF01926.29">
        <path d="m5,0h67.0h5v10h-5h-67.0h-5v-10h5z" fill="#357bdb" mask="url(#PF01926.29_0)" />
        <text x="38.5" y="8" text-anchor="middle" font-size="7.5" fill="white" opacity="1" data-maxwidth="61" font-family="Monospace">MMR_HSR1</text>
    </g>
</svg>